M48
METRIC,LZ,000.000
;FILE_FORMAT=3:3
;TYPE=PLATED
;Layer: PTH_Through
;EasyEDA v6.5.46, 2025-07-09 13:41:03
;12fb059d76d7480aa4ea8a5eff3d1b86,10
;Gerber Generator version 0.2
;Holesize 1 = 0.800 mm
T01C0.800
;Holesize 2 = 0.889 mm
T02C0.889
;Holesize 3 = 0.900 mm
T03C0.900
;Holesize 4 = 0.901 mm
T04C0.901
;Holesize 5 = 0.915 mm
T05C0.915
%
G05
G90
T01
X009848Y016383
X007848Y016383
X020050Y016383
X018050Y016383
X031395Y016383
X029395Y016383
X041725Y016383
X039725Y016383
T02
X030592Y028183
X028052Y028183
X025512Y028183
X022972Y028183
X020432Y028183
X017892Y028183
X021209Y002540
X023749Y002540
X026289Y002540
X028829Y002540
T03
X003810Y014097
X003810Y021717
X014859Y012573
X014859Y020193
X026289Y012573
X026289Y020193
X036195Y012700
X036195Y020320
X003937Y010541
X003937Y002921
X014986Y010541
X014986Y002921
X034036Y010541
X034036Y002921
X043942Y010541
X043942Y002921
T04
X008509Y007303
X008509Y009843
X020574Y007303
X020574Y009843
X029083Y007303
X029083Y009843
X039878Y007303
X039878Y009843
T05
X005966Y022479G85X005972Y022479
X011046Y022479G85X011052Y022479
X017142Y022479G85X017148Y022479
X022222Y022479G85X022228Y022479
X028699Y022479G85X028705Y022479
X033779Y022479G85X033785Y022479
X038351Y022479G85X038357Y022479
X043431Y022479G85X043437Y022479
M30
