G04 Layer: BottomLayer*
G04 EasyEDA v6.5.46, 2025-07-09 13:41:03*
G04 12fb059d76d7480aa4ea8a5eff3d1b86,10*
G04 Gerber Generator version 0.2*
G04 Scale: 100 percent, Rotated: No, Reflected: No *
G04 Dimensions in millimeters *
G04 leading zeros omitted , absolute positions ,4 integer and 5 decimal *
%FSLAX45Y45*%
%MOMM*%

%ADD10C,1.0000*%
%ADD11C,1.3000*%
%ADD12C,1.5748*%
%ADD13R,1.5748X1.5748*%
%ADD14C,1.4000*%
%ADD15C,1.8796*%
%ADD16C,1.5240*%
%ADD17C,0.0153*%

%LPD*%
G36*
X36068Y25857D02*
G01*
X32156Y26670D01*
X28854Y28854D01*
X26670Y32156D01*
X25908Y36017D01*
X25908Y2963926D01*
X26670Y2967786D01*
X28854Y2971088D01*
X32156Y2973273D01*
X36068Y2974086D01*
X4763922Y2974086D01*
X4767783Y2973273D01*
X4771085Y2971088D01*
X4773320Y2967786D01*
X4774082Y2963926D01*
X4774082Y36017D01*
X4773320Y32156D01*
X4771085Y28854D01*
X4767783Y26670D01*
X4763922Y25857D01*
X3828186Y25857D01*
X3824325Y26670D01*
X3821023Y28854D01*
X3818788Y32156D01*
X3818077Y36017D01*
X3818788Y39928D01*
X3821023Y43230D01*
X4043324Y265633D01*
X4050436Y274472D01*
X4055008Y282092D01*
X4056126Y284276D01*
X4059529Y292506D01*
X4060291Y294843D01*
X4062425Y303530D01*
X4062831Y305968D01*
X4063695Y314807D01*
X4063695Y668426D01*
X4064304Y671830D01*
X4072890Y686104D01*
X4078122Y698093D01*
X4081729Y710692D01*
X4083456Y723696D01*
X4083456Y736803D01*
X4081729Y749757D01*
X4078122Y762355D01*
X4072890Y774395D01*
X4066184Y785520D01*
X4057904Y795680D01*
X4048302Y804672D01*
X4037634Y812139D01*
X4025950Y818184D01*
X4013708Y822553D01*
X4000855Y825246D01*
X3987850Y826160D01*
X3974693Y825246D01*
X3961892Y822553D01*
X3949598Y818184D01*
X3937965Y812139D01*
X3927297Y804672D01*
X3917746Y795680D01*
X3909415Y785520D01*
X3902659Y774395D01*
X3897477Y762355D01*
X3893870Y749757D01*
X3892143Y736803D01*
X3892143Y723696D01*
X3893870Y710692D01*
X3897477Y698093D01*
X3902659Y686104D01*
X3909618Y674776D01*
X3911295Y671728D01*
X3911904Y668375D01*
X3911904Y353060D01*
X3911193Y349148D01*
X3908907Y345846D01*
X3730751Y167741D01*
X3727500Y165455D01*
X3723538Y164693D01*
X3459429Y164693D01*
X3455568Y165455D01*
X3452266Y167589D01*
X3450031Y170840D01*
X3449218Y174650D01*
X3449878Y178511D01*
X3451961Y181864D01*
X3455111Y184099D01*
X3460343Y186486D01*
X3472840Y194259D01*
X3484372Y203504D01*
X3494582Y214121D01*
X3503523Y225907D01*
X3510889Y238658D01*
X3516680Y252272D01*
X3520643Y266446D01*
X3522929Y281076D01*
X3523386Y295757D01*
X3522014Y310438D01*
X3518865Y324866D01*
X3513988Y338785D01*
X3507384Y351993D01*
X3499256Y364286D01*
X3489706Y375513D01*
X3482797Y381762D01*
X3480409Y385165D01*
X3479495Y389280D01*
X3479495Y612292D01*
X3478174Y623519D01*
X3476091Y632155D01*
X3471875Y642670D01*
X3466236Y652475D01*
X3464763Y654507D01*
X3459073Y661365D01*
X3087065Y1033373D01*
X3080258Y1039114D01*
X3070606Y1045057D01*
X3068370Y1046175D01*
X3057906Y1050391D01*
X3049219Y1052474D01*
X3037941Y1053795D01*
X2977946Y1053846D01*
X2974238Y1054506D01*
X2971038Y1056538D01*
X2968802Y1058672D01*
X2958134Y1066139D01*
X2946450Y1072184D01*
X2934208Y1076553D01*
X2921355Y1079246D01*
X2908350Y1080160D01*
X2895193Y1079246D01*
X2882392Y1076553D01*
X2870098Y1072184D01*
X2858465Y1066139D01*
X2847797Y1058672D01*
X2838196Y1049680D01*
X2829915Y1039520D01*
X2823159Y1028395D01*
X2817977Y1016355D01*
X2814370Y1003757D01*
X2812643Y990803D01*
X2812643Y977696D01*
X2814370Y964692D01*
X2817977Y952093D01*
X2823159Y940104D01*
X2829915Y928928D01*
X2838196Y918768D01*
X2847797Y909828D01*
X2858465Y902360D01*
X2870098Y896264D01*
X2882392Y891895D01*
X2895193Y889253D01*
X2908350Y888339D01*
X2921355Y889253D01*
X2934208Y891895D01*
X2946450Y896264D01*
X2955290Y900887D01*
X2957525Y901700D01*
X2959912Y901953D01*
X2999638Y901953D01*
X3003499Y901192D01*
X3006801Y899007D01*
X3324707Y581101D01*
X3326892Y577799D01*
X3327654Y573938D01*
X3327654Y389280D01*
X3326790Y385165D01*
X3324351Y381762D01*
X3317544Y375513D01*
X3307943Y364286D01*
X3299764Y351993D01*
X3293211Y338785D01*
X3288334Y324866D01*
X3285134Y310438D01*
X3283762Y295757D01*
X3284220Y281076D01*
X3286506Y266446D01*
X3290519Y252272D01*
X3296259Y238658D01*
X3303727Y225907D01*
X3312566Y214121D01*
X3322828Y203504D01*
X3334359Y194259D01*
X3346856Y186486D01*
X3352037Y184099D01*
X3355238Y181864D01*
X3357270Y178511D01*
X3357930Y174650D01*
X3357118Y170840D01*
X3354882Y167589D01*
X3351631Y165455D01*
X3347770Y164693D01*
X3223361Y164693D01*
X3219500Y165455D01*
X3216198Y167741D01*
X3074365Y309422D01*
X3067558Y315061D01*
X3057906Y321157D01*
X3047492Y325628D01*
X3045206Y326390D01*
X3034080Y328980D01*
X3025241Y329742D01*
X2958592Y329793D01*
X2954985Y330454D01*
X2951886Y332384D01*
X2946552Y336956D01*
X2935224Y344627D01*
X2922981Y350621D01*
X2910027Y355041D01*
X2896514Y357733D01*
X2882950Y358597D01*
X2869234Y357733D01*
X2855823Y355041D01*
X2842818Y350621D01*
X2830576Y344627D01*
X2819196Y336956D01*
X2808884Y328015D01*
X2799943Y317703D01*
X2792323Y306273D01*
X2786227Y294030D01*
X2781808Y281127D01*
X2779166Y267614D01*
X2778252Y253949D01*
X2779166Y240334D01*
X2781808Y226872D01*
X2786227Y213918D01*
X2792323Y201676D01*
X2799943Y190296D01*
X2808884Y179984D01*
X2819196Y170992D01*
X2830576Y163372D01*
X2842818Y157327D01*
X2855823Y152908D01*
X2869234Y150266D01*
X2882950Y149352D01*
X2896514Y150266D01*
X2910027Y152908D01*
X2922981Y157327D01*
X2935224Y163372D01*
X2946552Y170992D01*
X2951683Y175514D01*
X2954832Y177342D01*
X2958388Y178054D01*
X2986938Y178054D01*
X2990900Y177241D01*
X2994152Y175056D01*
X3125927Y43230D01*
X3128111Y39928D01*
X3128873Y36017D01*
X3128111Y32156D01*
X3125927Y28854D01*
X3122625Y26670D01*
X3118713Y25857D01*
X1885086Y25857D01*
X1881225Y26670D01*
X1877923Y28854D01*
X1875688Y32156D01*
X1874977Y36017D01*
X1875688Y39928D01*
X1877923Y43230D01*
X2002231Y167538D01*
X2005533Y169773D01*
X2009444Y170484D01*
X2013356Y169722D01*
X2016658Y167436D01*
X2021941Y159105D01*
X2026005Y155092D01*
X2030933Y151942D01*
X2036368Y150114D01*
X2042718Y149301D01*
X2199081Y149301D01*
X2205431Y150114D01*
X2210866Y151942D01*
X2215743Y155092D01*
X2219807Y159105D01*
X2222906Y164033D01*
X2224786Y169468D01*
X2225598Y175818D01*
X2225598Y332130D01*
X2224786Y338480D01*
X2222906Y343916D01*
X2219807Y348843D01*
X2215743Y352907D01*
X2210866Y356006D01*
X2205431Y357886D01*
X2199081Y358597D01*
X2042718Y358597D01*
X2036368Y357886D01*
X2030933Y356006D01*
X2026005Y352907D01*
X2021941Y348843D01*
X2018893Y343916D01*
X2015743Y335026D01*
X2013559Y332333D01*
X2010410Y330454D01*
X2006904Y329793D01*
X1978558Y329742D01*
X1969719Y328980D01*
X1958644Y326390D01*
X1956307Y325628D01*
X1945893Y321157D01*
X1938274Y316484D01*
X1929434Y309422D01*
X1787652Y167741D01*
X1784400Y165455D01*
X1780438Y164693D01*
X1554429Y164693D01*
X1550568Y165455D01*
X1547266Y167589D01*
X1545031Y170840D01*
X1544218Y174650D01*
X1544878Y178511D01*
X1546961Y181864D01*
X1550111Y184099D01*
X1555343Y186486D01*
X1567840Y194259D01*
X1579372Y203504D01*
X1589582Y214121D01*
X1598472Y225907D01*
X1605889Y238658D01*
X1611680Y252272D01*
X1615643Y266446D01*
X1617929Y281076D01*
X1618386Y295757D01*
X1617014Y310438D01*
X1613865Y324866D01*
X1608988Y338785D01*
X1602384Y351993D01*
X1594256Y364286D01*
X1584706Y375513D01*
X1577797Y381762D01*
X1575409Y385165D01*
X1574495Y389280D01*
X1574495Y548538D01*
X1575308Y552399D01*
X1577441Y555701D01*
X1933498Y911707D01*
X1936800Y913892D01*
X1940661Y914653D01*
X1987702Y914653D01*
X1991461Y913942D01*
X1994611Y911910D01*
X1996897Y909828D01*
X2007565Y902360D01*
X2019147Y896264D01*
X2031492Y891895D01*
X2044293Y889253D01*
X2057349Y888339D01*
X2070404Y889253D01*
X2083307Y891895D01*
X2095550Y896264D01*
X2107234Y902360D01*
X2117902Y909828D01*
X2127504Y918768D01*
X2135682Y928928D01*
X2142490Y940104D01*
X2147722Y952093D01*
X2151227Y964692D01*
X2153056Y977696D01*
X2153056Y990803D01*
X2151227Y1003757D01*
X2147722Y1016355D01*
X2142490Y1028395D01*
X2135682Y1039520D01*
X2127504Y1049680D01*
X2117902Y1058672D01*
X2107234Y1066139D01*
X2095550Y1072184D01*
X2083307Y1076553D01*
X2070404Y1079246D01*
X2057349Y1080160D01*
X2044293Y1079246D01*
X2031492Y1076553D01*
X2019147Y1072184D01*
X2010410Y1067612D01*
X2008124Y1066749D01*
X2005736Y1066546D01*
X1902307Y1066495D01*
X1891080Y1065174D01*
X1882444Y1063091D01*
X1871929Y1058875D01*
X1869693Y1057757D01*
X1860042Y1051814D01*
X1853234Y1046073D01*
X1443075Y635914D01*
X1437386Y629107D01*
X1435963Y627075D01*
X1431391Y619455D01*
X1430274Y617270D01*
X1426870Y609041D01*
X1426108Y606704D01*
X1423568Y595680D01*
X1422704Y586892D01*
X1422654Y389280D01*
X1421790Y385165D01*
X1419352Y381762D01*
X1412544Y375513D01*
X1402943Y364286D01*
X1394764Y351993D01*
X1388211Y338785D01*
X1383334Y324866D01*
X1380134Y310438D01*
X1378762Y295757D01*
X1379220Y281076D01*
X1381506Y266446D01*
X1385519Y252272D01*
X1391259Y238658D01*
X1398727Y225907D01*
X1407566Y214121D01*
X1417828Y203504D01*
X1429359Y194259D01*
X1441856Y186486D01*
X1447038Y184099D01*
X1450238Y181864D01*
X1452270Y178511D01*
X1452930Y174650D01*
X1452118Y170840D01*
X1449882Y167589D01*
X1446631Y165455D01*
X1442770Y164693D01*
X1089761Y164693D01*
X1085850Y165455D01*
X1082548Y167741D01*
X929792Y320446D01*
X927557Y323748D01*
X926795Y327660D01*
X926795Y668426D01*
X927404Y671830D01*
X935990Y686104D01*
X941222Y698093D01*
X944778Y710692D01*
X946556Y723696D01*
X946556Y736803D01*
X944778Y749757D01*
X941222Y762355D01*
X935990Y774395D01*
X929233Y785520D01*
X921003Y795680D01*
X911402Y804672D01*
X900684Y812139D01*
X889050Y818184D01*
X876757Y822553D01*
X863955Y825246D01*
X850900Y826160D01*
X837793Y825246D01*
X824992Y822553D01*
X823315Y821944D01*
X819454Y821385D01*
X815644Y822350D01*
X812495Y824534D01*
X810412Y827836D01*
X809752Y831646D01*
X810514Y835507D01*
X812698Y838708D01*
X860907Y886917D01*
X863244Y888695D01*
X866038Y889711D01*
X876757Y891895D01*
X889050Y896264D01*
X900684Y902360D01*
X911402Y909828D01*
X921003Y918768D01*
X929233Y928928D01*
X935990Y940104D01*
X941222Y952093D01*
X944778Y964692D01*
X946556Y977696D01*
X946556Y990803D01*
X944778Y1003757D01*
X941222Y1016355D01*
X935990Y1028395D01*
X929233Y1039520D01*
X921003Y1049680D01*
X911402Y1058672D01*
X900684Y1066139D01*
X889050Y1072184D01*
X876757Y1076553D01*
X863955Y1079246D01*
X850900Y1080160D01*
X837793Y1079246D01*
X824992Y1076553D01*
X812698Y1072184D01*
X801065Y1066139D01*
X790346Y1058672D01*
X780796Y1049680D01*
X772515Y1039520D01*
X765759Y1028395D01*
X760526Y1016355D01*
X756970Y1003757D01*
X756513Y1000150D01*
X755548Y997000D01*
X753618Y994308D01*
X338175Y578764D01*
X332486Y571957D01*
X331063Y569925D01*
X325374Y560120D01*
X321970Y551891D01*
X321208Y549554D01*
X319074Y540969D01*
X317804Y529742D01*
X317754Y389280D01*
X316890Y385165D01*
X314452Y381762D01*
X307644Y375513D01*
X297992Y364286D01*
X289915Y351993D01*
X283311Y338785D01*
X278384Y324866D01*
X275234Y310438D01*
X273862Y295757D01*
X274320Y281076D01*
X276606Y266446D01*
X280619Y252272D01*
X286359Y238658D01*
X293827Y225907D01*
X302666Y214121D01*
X312928Y203504D01*
X324408Y194259D01*
X336956Y186486D01*
X350367Y180289D01*
X364439Y175818D01*
X378968Y173177D01*
X393700Y172212D01*
X408381Y173177D01*
X422909Y175818D01*
X436981Y180289D01*
X450392Y186486D01*
X462940Y194259D01*
X474421Y203504D01*
X484682Y214121D01*
X493572Y225907D01*
X500989Y238658D01*
X506780Y252272D01*
X510743Y266446D01*
X513029Y281076D01*
X513486Y295757D01*
X512165Y310438D01*
X508965Y324866D01*
X504037Y338785D01*
X497484Y351993D01*
X489356Y364286D01*
X479755Y375513D01*
X472897Y381762D01*
X470458Y385165D01*
X469595Y389280D01*
X469595Y491388D01*
X470357Y495249D01*
X472592Y498551D01*
X742492Y768553D01*
X746252Y770890D01*
X750620Y771499D01*
X754837Y770077D01*
X758037Y767130D01*
X759714Y762965D01*
X759460Y758596D01*
X756970Y749757D01*
X755192Y736803D01*
X755192Y723696D01*
X756970Y710692D01*
X760526Y698093D01*
X765759Y686104D01*
X772718Y674776D01*
X774395Y671728D01*
X775004Y668375D01*
X775055Y289407D01*
X776274Y278130D01*
X778408Y269443D01*
X779170Y267106D01*
X782574Y258876D01*
X788314Y249072D01*
X795375Y240233D01*
X992327Y43230D01*
X994511Y39928D01*
X995273Y36017D01*
X994511Y32156D01*
X992327Y28854D01*
X989025Y26670D01*
X985113Y25857D01*
G37*

%LPC*%
G36*
X2628950Y149352D02*
G01*
X2642514Y150266D01*
X2656027Y152908D01*
X2668981Y157327D01*
X2681224Y163372D01*
X2692552Y170992D01*
X2702864Y179984D01*
X2711856Y190296D01*
X2719527Y201676D01*
X2725521Y213918D01*
X2729941Y226872D01*
X2732582Y240334D01*
X2733497Y253949D01*
X2732582Y267614D01*
X2729941Y281127D01*
X2725521Y294030D01*
X2719527Y306273D01*
X2711856Y317703D01*
X2707335Y322884D01*
X2705455Y326034D01*
X2704795Y329539D01*
X2704795Y421538D01*
X2705608Y425399D01*
X2707741Y428701D01*
X2911094Y632002D01*
X2914040Y634085D01*
X2917545Y635000D01*
X2921355Y635254D01*
X2934208Y637895D01*
X2946450Y642264D01*
X2958134Y648360D01*
X2968802Y655828D01*
X2978404Y664768D01*
X2986684Y674928D01*
X2993390Y686104D01*
X2998622Y698093D01*
X3002229Y710692D01*
X3003956Y723696D01*
X3003956Y736803D01*
X3002229Y749757D01*
X2998622Y762355D01*
X2993390Y774395D01*
X2986684Y785520D01*
X2978404Y795680D01*
X2968802Y804672D01*
X2958134Y812139D01*
X2946450Y818184D01*
X2934208Y822553D01*
X2921355Y825246D01*
X2908350Y826160D01*
X2895193Y825246D01*
X2882392Y822553D01*
X2870098Y818184D01*
X2858465Y812139D01*
X2847797Y804672D01*
X2838196Y795680D01*
X2829915Y785520D01*
X2823159Y774395D01*
X2817977Y762355D01*
X2815234Y752703D01*
X2814218Y750316D01*
X2812643Y748284D01*
X2573375Y508914D01*
X2567686Y502107D01*
X2566263Y500075D01*
X2561691Y492455D01*
X2560574Y490270D01*
X2557170Y482041D01*
X2556408Y479704D01*
X2553868Y468680D01*
X2553004Y459892D01*
X2553004Y329590D01*
X2552395Y326034D01*
X2550464Y322884D01*
X2545943Y317703D01*
X2538323Y306273D01*
X2532227Y294030D01*
X2527808Y281127D01*
X2525166Y267614D01*
X2524252Y253949D01*
X2525166Y240334D01*
X2527808Y226872D01*
X2532227Y213918D01*
X2538323Y201676D01*
X2545943Y190296D01*
X2554884Y179984D01*
X2565196Y170992D01*
X2576576Y163372D01*
X2588818Y157327D01*
X2601823Y152908D01*
X2615234Y150266D01*
G37*
G36*
X2374950Y149352D02*
G01*
X2388514Y150266D01*
X2402027Y152908D01*
X2414981Y157327D01*
X2427224Y163372D01*
X2438552Y170992D01*
X2448864Y179984D01*
X2457856Y190296D01*
X2465527Y201676D01*
X2471521Y213918D01*
X2475941Y226872D01*
X2478582Y240334D01*
X2479497Y253949D01*
X2478582Y267614D01*
X2475941Y281127D01*
X2471521Y294030D01*
X2465527Y306273D01*
X2457856Y317703D01*
X2448864Y328015D01*
X2441600Y334365D01*
X2439009Y337820D01*
X2438095Y341985D01*
X2438095Y469493D01*
X2437231Y481177D01*
X2434691Y492251D01*
X2430526Y502869D01*
X2424938Y512622D01*
X2417775Y521512D01*
X2410561Y528421D01*
X2155088Y741273D01*
X2152700Y744169D01*
X2151532Y747674D01*
X2151227Y749757D01*
X2147722Y762355D01*
X2142490Y774395D01*
X2135682Y785520D01*
X2127504Y795680D01*
X2117902Y804672D01*
X2107234Y812139D01*
X2095550Y818184D01*
X2083307Y822553D01*
X2070404Y825246D01*
X2057349Y826160D01*
X2044293Y825246D01*
X2031492Y822553D01*
X2019147Y818184D01*
X2007565Y812139D01*
X1996897Y804672D01*
X1987296Y795680D01*
X1979015Y785520D01*
X1972259Y774395D01*
X1967077Y762355D01*
X1963470Y749757D01*
X1961743Y736803D01*
X1961743Y723696D01*
X1963470Y710692D01*
X1967077Y698093D01*
X1972259Y686104D01*
X1979015Y674928D01*
X1987296Y664768D01*
X1996897Y655828D01*
X2007565Y648360D01*
X2019147Y642264D01*
X2031492Y637895D01*
X2043023Y635508D01*
X2045309Y634746D01*
X2047392Y633374D01*
X2282647Y437438D01*
X2285288Y433933D01*
X2286254Y429615D01*
X2286254Y312369D01*
X2285847Y309422D01*
X2278227Y294030D01*
X2273808Y281127D01*
X2271166Y267614D01*
X2270252Y253949D01*
X2271166Y240334D01*
X2273808Y226872D01*
X2278227Y213918D01*
X2284323Y201676D01*
X2291943Y190296D01*
X2300884Y179984D01*
X2311196Y170992D01*
X2322576Y163372D01*
X2334818Y157327D01*
X2347823Y152908D01*
X2361234Y150266D01*
G37*
G36*
X4394250Y172212D02*
G01*
X4408881Y173177D01*
X4423410Y175818D01*
X4437481Y180289D01*
X4450943Y186486D01*
X4463440Y194259D01*
X4474972Y203504D01*
X4485182Y214121D01*
X4494123Y225907D01*
X4501489Y238658D01*
X4507280Y252272D01*
X4511243Y266446D01*
X4513529Y281076D01*
X4513986Y295757D01*
X4512614Y310438D01*
X4509465Y324866D01*
X4504588Y338785D01*
X4497984Y351993D01*
X4489856Y364286D01*
X4480306Y375513D01*
X4473397Y381762D01*
X4471009Y385165D01*
X4470095Y389280D01*
X4470095Y675792D01*
X4468774Y687019D01*
X4466691Y695655D01*
X4462475Y706170D01*
X4456836Y715975D01*
X4455363Y718007D01*
X4449673Y724865D01*
X4153865Y1020673D01*
X4147058Y1026414D01*
X4137406Y1032357D01*
X4135170Y1033475D01*
X4124706Y1037691D01*
X4116019Y1039774D01*
X4104741Y1041095D01*
X4069689Y1041146D01*
X4065320Y1042111D01*
X4061764Y1044854D01*
X4057904Y1049680D01*
X4048302Y1058672D01*
X4037634Y1066139D01*
X4025950Y1072184D01*
X4013708Y1076553D01*
X4000855Y1079246D01*
X3987850Y1080160D01*
X3974693Y1079246D01*
X3961892Y1076553D01*
X3949598Y1072184D01*
X3937965Y1066139D01*
X3927297Y1058672D01*
X3917746Y1049680D01*
X3909415Y1039520D01*
X3902659Y1028395D01*
X3897477Y1016355D01*
X3893870Y1003757D01*
X3892143Y990803D01*
X3892143Y977696D01*
X3893870Y964692D01*
X3897477Y952093D01*
X3902659Y940104D01*
X3909415Y928928D01*
X3917746Y918768D01*
X3927297Y909828D01*
X3937965Y902360D01*
X3949598Y896264D01*
X3961892Y891895D01*
X3974693Y889253D01*
X3987850Y888339D01*
X4002278Y889304D01*
X4066438Y889253D01*
X4070299Y888492D01*
X4073601Y886307D01*
X4315307Y644601D01*
X4317492Y641299D01*
X4318254Y637438D01*
X4318254Y389280D01*
X4317390Y385165D01*
X4314952Y381762D01*
X4308144Y375513D01*
X4298543Y364286D01*
X4290364Y351993D01*
X4283811Y338785D01*
X4278934Y324866D01*
X4275734Y310438D01*
X4274362Y295757D01*
X4274820Y281076D01*
X4277106Y266446D01*
X4281119Y252272D01*
X4286859Y238658D01*
X4294327Y225907D01*
X4303166Y214121D01*
X4313428Y203504D01*
X4324959Y194259D01*
X4337456Y186486D01*
X4350918Y180289D01*
X4364990Y175818D01*
X4379468Y173177D01*
G37*
G36*
X1445260Y946912D02*
G01*
X1445260Y1000709D01*
X1391259Y1000709D01*
X1398727Y987907D01*
X1407566Y976121D01*
X1417828Y965504D01*
X1429359Y956259D01*
X1441856Y948486D01*
G37*
G36*
X3350260Y946912D02*
G01*
X3350260Y1000709D01*
X3296259Y1000709D01*
X3303727Y987907D01*
X3312566Y976121D01*
X3322828Y965504D01*
X3334359Y956259D01*
X3346856Y948486D01*
G37*
G36*
X4340860Y946912D02*
G01*
X4340860Y1000709D01*
X4286859Y1000709D01*
X4294327Y987907D01*
X4303166Y976121D01*
X4313428Y965504D01*
X4324959Y956259D01*
X4337456Y948486D01*
G37*
G36*
X447040Y946912D02*
G01*
X450392Y948486D01*
X462940Y956259D01*
X474421Y965504D01*
X484682Y976121D01*
X493572Y987907D01*
X500989Y1000709D01*
X447040Y1000709D01*
G37*
G36*
X340360Y946912D02*
G01*
X340360Y1000709D01*
X286359Y1000709D01*
X293827Y987907D01*
X302666Y976121D01*
X312928Y965504D01*
X324408Y956259D01*
X336956Y948486D01*
G37*
G36*
X3456940Y946912D02*
G01*
X3460343Y948486D01*
X3472840Y956259D01*
X3484372Y965504D01*
X3494582Y976121D01*
X3503523Y987907D01*
X3510889Y1000709D01*
X3456940Y1000709D01*
G37*
G36*
X1551940Y946912D02*
G01*
X1555343Y948486D01*
X1567840Y956259D01*
X1579372Y965504D01*
X1589582Y976121D01*
X1598472Y987907D01*
X1605889Y1000709D01*
X1551940Y1000709D01*
G37*
G36*
X4447540Y946912D02*
G01*
X4450943Y948486D01*
X4463440Y956259D01*
X4474972Y965504D01*
X4485182Y976121D01*
X4494123Y987907D01*
X4501489Y1000709D01*
X4447540Y1000709D01*
G37*
G36*
X4287062Y1107389D02*
G01*
X4340860Y1107389D01*
X4340860Y1161288D01*
X4331055Y1156004D01*
X4319066Y1147470D01*
X4308144Y1137513D01*
X4298543Y1126286D01*
X4290364Y1113993D01*
G37*
G36*
X3296462Y1107389D02*
G01*
X3350260Y1107389D01*
X3350260Y1161288D01*
X3340455Y1156004D01*
X3328466Y1147470D01*
X3317544Y1137513D01*
X3307943Y1126286D01*
X3299764Y1113993D01*
G37*
G36*
X447040Y1107389D02*
G01*
X500786Y1107389D01*
X497484Y1113993D01*
X489356Y1126286D01*
X479755Y1137513D01*
X468833Y1147470D01*
X456793Y1156004D01*
X447040Y1161288D01*
G37*
G36*
X286562Y1107389D02*
G01*
X340360Y1107389D01*
X340360Y1161288D01*
X330555Y1156004D01*
X318516Y1147470D01*
X307644Y1137513D01*
X297992Y1126286D01*
X289915Y1113993D01*
G37*
G36*
X3456940Y1107389D02*
G01*
X3510686Y1107389D01*
X3507384Y1113993D01*
X3499256Y1126286D01*
X3489706Y1137513D01*
X3478733Y1147470D01*
X3466693Y1156004D01*
X3456940Y1161288D01*
G37*
G36*
X4447540Y1107389D02*
G01*
X4501286Y1107389D01*
X4497984Y1113993D01*
X4489856Y1126286D01*
X4480306Y1137513D01*
X4469333Y1147470D01*
X4457293Y1156004D01*
X4447540Y1161288D01*
G37*
G36*
X1391462Y1107389D02*
G01*
X1445260Y1107389D01*
X1445260Y1123238D01*
X1439011Y1125321D01*
X1435608Y1127556D01*
X1433322Y1130858D01*
X1432560Y1134872D01*
X1432560Y1203909D01*
X1378762Y1203909D01*
X1382064Y1197406D01*
X1390243Y1185062D01*
X1399844Y1173835D01*
X1410766Y1163878D01*
X1417777Y1158951D01*
X1420723Y1155598D01*
X1421993Y1151280D01*
X1421282Y1146810D01*
X1418691Y1143203D01*
X1412544Y1137513D01*
X1402943Y1126286D01*
X1394764Y1113993D01*
G37*
G36*
X1551940Y1107389D02*
G01*
X1605686Y1107389D01*
X1602384Y1113993D01*
X1594256Y1126286D01*
X1584706Y1137513D01*
X1573733Y1147470D01*
X1566722Y1152448D01*
X1563725Y1155750D01*
X1562455Y1160068D01*
X1563166Y1164539D01*
X1565757Y1168196D01*
X1572006Y1173835D01*
X1581556Y1185062D01*
X1589684Y1197406D01*
X1592986Y1203909D01*
X1539240Y1203909D01*
X1539240Y1188212D01*
X1545488Y1186027D01*
X1548841Y1183843D01*
X1551127Y1180490D01*
X1551940Y1176528D01*
G37*
G36*
X2575560Y1150112D02*
G01*
X2575560Y1203909D01*
X2521762Y1203909D01*
X2525064Y1197406D01*
X2533243Y1185062D01*
X2542844Y1173835D01*
X2553766Y1163878D01*
X2565755Y1155395D01*
G37*
G36*
X2682240Y1150112D02*
G01*
X2691993Y1155395D01*
X2704033Y1163878D01*
X2715006Y1173835D01*
X2724556Y1185062D01*
X2732684Y1197406D01*
X2735986Y1203909D01*
X2682240Y1203909D01*
G37*
G36*
X3566160Y1162812D02*
G01*
X3566160Y1216609D01*
X3512362Y1216609D01*
X3515664Y1210106D01*
X3523843Y1197762D01*
X3533444Y1186535D01*
X3544366Y1176578D01*
X3556355Y1168095D01*
G37*
G36*
X3672840Y1162812D02*
G01*
X3682593Y1168095D01*
X3694633Y1176578D01*
X3705606Y1186535D01*
X3715156Y1197762D01*
X3723284Y1210106D01*
X3726586Y1216609D01*
X3672840Y1216609D01*
G37*
G36*
X434340Y1302512D02*
G01*
X444093Y1307795D01*
X456133Y1316278D01*
X467055Y1326235D01*
X476656Y1337462D01*
X484784Y1349806D01*
X488086Y1356309D01*
X434340Y1356309D01*
G37*
G36*
X327660Y1302512D02*
G01*
X327660Y1356309D01*
X273862Y1356309D01*
X277215Y1349806D01*
X285292Y1337462D01*
X294944Y1326235D01*
X305816Y1316278D01*
X317855Y1307795D01*
G37*
G36*
X2844952Y1308354D02*
G01*
X3076194Y1308354D01*
X3084880Y1309166D01*
X3087471Y1309624D01*
X3098495Y1312519D01*
X3106470Y1315872D01*
X3116326Y1321562D01*
X3118459Y1323086D01*
X3125165Y1328674D01*
X3194964Y1398727D01*
X3200704Y1405686D01*
X3202025Y1407566D01*
X3206699Y1415338D01*
X3211220Y1425752D01*
X3211931Y1427988D01*
X3214471Y1438960D01*
X3215284Y1448054D01*
X3215335Y1552143D01*
X3216097Y1556004D01*
X3218332Y1559356D01*
X3221634Y1561541D01*
X3225495Y1562354D01*
X3596538Y1562354D01*
X3600500Y1561541D01*
X3603751Y1559356D01*
X3796334Y1366774D01*
X3805174Y1359712D01*
X3812794Y1355090D01*
X3815029Y1353972D01*
X3823208Y1350568D01*
X3834180Y1347673D01*
X3836619Y1347266D01*
X3845458Y1346454D01*
X4053941Y1346454D01*
X4062780Y1347266D01*
X4065219Y1347673D01*
X4076192Y1350568D01*
X4084421Y1353972D01*
X4086606Y1355090D01*
X4096258Y1361135D01*
X4103065Y1366774D01*
X4227982Y1491691D01*
X4233672Y1498549D01*
X4239666Y1508150D01*
X4240834Y1510334D01*
X4244238Y1518564D01*
X4245000Y1520901D01*
X4247083Y1529588D01*
X4247489Y1532026D01*
X4248404Y1543558D01*
X4248404Y1585772D01*
X4248759Y1588566D01*
X4249928Y1591157D01*
X4252722Y1595628D01*
X4257852Y1607261D01*
X4261358Y1619453D01*
X4263136Y1631950D01*
X4263136Y1644599D01*
X4261358Y1657197D01*
X4258513Y1667205D01*
X4258157Y1670812D01*
X4259072Y1674266D01*
X4261104Y1677212D01*
X4398873Y1815084D01*
X4404563Y1821942D01*
X4406036Y1823974D01*
X4411675Y1833778D01*
X4415891Y1844344D01*
X4417974Y1852980D01*
X4419295Y1864207D01*
X4419295Y2176018D01*
X4419955Y2179726D01*
X4421886Y2182876D01*
X4423511Y2184654D01*
X4431233Y2195880D01*
X4437430Y2208072D01*
X4441850Y2220925D01*
X4444593Y2234285D01*
X4445508Y2247849D01*
X4444593Y2261463D01*
X4441850Y2274824D01*
X4437430Y2287727D01*
X4431233Y2299919D01*
X4423511Y2311146D01*
X4414418Y2321255D01*
X4404004Y2330043D01*
X4392422Y2337460D01*
X4380077Y2343150D01*
X4367022Y2347214D01*
X4353661Y2349449D01*
X4339945Y2349906D01*
X4326432Y2348534D01*
X4313174Y2345385D01*
X4300474Y2340457D01*
X4288434Y2333904D01*
X4277461Y2325827D01*
X4267708Y2316327D01*
X4259224Y2305710D01*
X4252264Y2293975D01*
X4246930Y2281377D01*
X4243324Y2268220D01*
X4241495Y2254707D01*
X4241495Y2241042D01*
X4243324Y2227580D01*
X4246930Y2214422D01*
X4252264Y2201824D01*
X4259224Y2190089D01*
X4265320Y2182418D01*
X4266895Y2179472D01*
X4267454Y2176119D01*
X4267454Y1902510D01*
X4266692Y1898650D01*
X4264507Y1895398D01*
X4116984Y1747723D01*
X4111294Y1740865D01*
X4109872Y1738884D01*
X4105300Y1731314D01*
X4104182Y1729079D01*
X4100779Y1720850D01*
X4100017Y1718564D01*
X4097832Y1709877D01*
X4096613Y1698650D01*
X4096562Y1691132D01*
X4096258Y1688693D01*
X4095445Y1686407D01*
X4089450Y1675231D01*
X4085132Y1663395D01*
X4082287Y1649882D01*
X4080713Y1646174D01*
X4077868Y1643430D01*
X4074007Y1641957D01*
X4070045Y1642059D01*
X4066336Y1643837D01*
X4063695Y1646783D01*
X4062323Y1650542D01*
X4061358Y1657197D01*
X4057904Y1669338D01*
X4051452Y1683816D01*
X4050995Y1686610D01*
X4050995Y2009292D01*
X4049674Y2020519D01*
X4047591Y2029104D01*
X4043375Y2039670D01*
X4037736Y2049475D01*
X4036263Y2051507D01*
X4030573Y2058365D01*
X3916984Y2172055D01*
X3914952Y2174900D01*
X3914038Y2178304D01*
X3914292Y2181809D01*
X3915765Y2185060D01*
X3923233Y2195880D01*
X3929430Y2208072D01*
X3933850Y2220925D01*
X3936593Y2234285D01*
X3937508Y2247849D01*
X3936593Y2261463D01*
X3933850Y2274824D01*
X3929430Y2287727D01*
X3923233Y2299919D01*
X3915511Y2311146D01*
X3906418Y2321255D01*
X3896004Y2330043D01*
X3884422Y2337460D01*
X3872077Y2343150D01*
X3859022Y2347214D01*
X3844950Y2349449D01*
X3841242Y2350312D01*
X3838092Y2352446D01*
X3671265Y2519273D01*
X3664458Y2524861D01*
X3654806Y2530957D01*
X3644392Y2535428D01*
X3642106Y2536190D01*
X3630980Y2538780D01*
X3622141Y2539542D01*
X3121761Y2539593D01*
X3117900Y2540355D01*
X3114598Y2542641D01*
X2899410Y2757728D01*
X2897124Y2761234D01*
X2896463Y2765399D01*
X2897479Y2769412D01*
X2901848Y2778252D01*
X2906217Y2791256D01*
X2908909Y2804617D01*
X2909824Y2818282D01*
X2908909Y2831947D01*
X2906217Y2845358D01*
X2901848Y2858312D01*
X2895854Y2870606D01*
X2888183Y2881985D01*
X2879191Y2892247D01*
X2868879Y2901289D01*
X2857550Y2908960D01*
X2845206Y2914954D01*
X2832252Y2919323D01*
X2818841Y2922016D01*
X2805176Y2922930D01*
X2791561Y2922016D01*
X2778150Y2919323D01*
X2765145Y2914954D01*
X2752852Y2908960D01*
X2741523Y2901289D01*
X2731211Y2892247D01*
X2722168Y2881985D01*
X2714548Y2870606D01*
X2708554Y2858312D01*
X2704134Y2845358D01*
X2701442Y2831947D01*
X2700528Y2818282D01*
X2701442Y2804617D01*
X2704134Y2791256D01*
X2708554Y2778252D01*
X2714548Y2765958D01*
X2722168Y2754630D01*
X2726842Y2749296D01*
X2728823Y2745943D01*
X2730550Y2730754D01*
X2732684Y2722067D01*
X2736900Y2711500D01*
X2738018Y2709316D01*
X2742590Y2701696D01*
X2744012Y2699715D01*
X2749702Y2692857D01*
X3034334Y2408174D01*
X3043174Y2401112D01*
X3050794Y2396490D01*
X3053029Y2395372D01*
X3061208Y2391968D01*
X3072180Y2389073D01*
X3074619Y2388666D01*
X3083458Y2387854D01*
X3583838Y2387854D01*
X3587800Y2387041D01*
X3591051Y2384856D01*
X3720795Y2255012D01*
X3723081Y2251760D01*
X3723792Y2247849D01*
X3723081Y2243937D01*
X3720795Y2240737D01*
X3634486Y2154377D01*
X3630980Y2152040D01*
X3626713Y2151430D01*
X3619550Y2151888D01*
X3604768Y2150973D01*
X3590290Y2148230D01*
X3576218Y2143760D01*
X3562756Y2137562D01*
X3550259Y2129790D01*
X3538728Y2120595D01*
X3528466Y2109978D01*
X3519627Y2098192D01*
X3512159Y2085441D01*
X3506419Y2071827D01*
X3502406Y2057654D01*
X3500120Y2043023D01*
X3499662Y2028342D01*
X3501034Y2013661D01*
X3504234Y1999183D01*
X3509111Y1985314D01*
X3515664Y1972106D01*
X3523843Y1959762D01*
X3533444Y1948535D01*
X3544366Y1938578D01*
X3556355Y1930095D01*
X3569411Y1923084D01*
X3583127Y1917750D01*
X3597452Y1914143D01*
X3612083Y1912315D01*
X3626916Y1912315D01*
X3641547Y1914143D01*
X3655822Y1917750D01*
X3669588Y1923084D01*
X3682593Y1930095D01*
X3694633Y1938578D01*
X3705606Y1948535D01*
X3715156Y1959762D01*
X3723284Y1972106D01*
X3729888Y1985314D01*
X3734765Y1999183D01*
X3737914Y2013661D01*
X3739286Y2028342D01*
X3738930Y2039569D01*
X3739642Y2043633D01*
X3741928Y2047036D01*
X3777386Y2082546D01*
X3780688Y2084730D01*
X3784650Y2085492D01*
X3788511Y2084730D01*
X3791762Y2082546D01*
X3896207Y1978101D01*
X3898392Y1974799D01*
X3899154Y1970938D01*
X3899154Y1694942D01*
X3898696Y1691792D01*
X3897223Y1688998D01*
X3895394Y1686458D01*
X3889451Y1675231D01*
X3885082Y1663395D01*
X3882491Y1650949D01*
X3881577Y1638300D01*
X3882491Y1625650D01*
X3885082Y1613204D01*
X3889451Y1601368D01*
X3895394Y1590192D01*
X3902913Y1579930D01*
X3911650Y1570736D01*
X3921658Y1562912D01*
X3932631Y1556613D01*
X3944416Y1551838D01*
X3956659Y1548790D01*
X3969359Y1547469D01*
X3981958Y1547876D01*
X3994454Y1550162D01*
X4006545Y1554022D01*
X4017924Y1559560D01*
X4028440Y1566722D01*
X4037837Y1575155D01*
X4046016Y1584858D01*
X4052722Y1595628D01*
X4057904Y1607261D01*
X4061358Y1619504D01*
X4062323Y1625803D01*
X4063695Y1629511D01*
X4066438Y1632457D01*
X4070146Y1634134D01*
X4074109Y1634236D01*
X4077868Y1632762D01*
X4080713Y1630019D01*
X4082287Y1626362D01*
X4085132Y1613204D01*
X4089450Y1601368D01*
X4095343Y1590192D01*
X4096258Y1587855D01*
X4096562Y1585417D01*
X4096562Y1579118D01*
X4095800Y1575206D01*
X4093565Y1571904D01*
X4022851Y1501241D01*
X4019600Y1498955D01*
X4015638Y1498193D01*
X3883761Y1498193D01*
X3879900Y1498955D01*
X3876598Y1501241D01*
X3683965Y1693773D01*
X3677158Y1699361D01*
X3667506Y1705457D01*
X3657092Y1709928D01*
X3654806Y1710689D01*
X3643680Y1713280D01*
X3634841Y1714042D01*
X3255670Y1714093D01*
X3251809Y1714855D01*
X3248507Y1717141D01*
X3246374Y1720392D01*
X3245561Y1724253D01*
X3246374Y1728165D01*
X3248507Y1731467D01*
X3433673Y1916684D01*
X3439363Y1923542D01*
X3440836Y1925574D01*
X3446475Y1935378D01*
X3450691Y1945944D01*
X3452774Y1954580D01*
X3454095Y1965807D01*
X3454095Y2176018D01*
X3454755Y2179726D01*
X3456686Y2182876D01*
X3458311Y2184654D01*
X3466033Y2195880D01*
X3472230Y2208072D01*
X3476650Y2220925D01*
X3479393Y2234285D01*
X3480308Y2247849D01*
X3479393Y2261463D01*
X3476650Y2274824D01*
X3472230Y2287727D01*
X3466033Y2299919D01*
X3458311Y2311146D01*
X3449218Y2321255D01*
X3438804Y2330043D01*
X3427222Y2337460D01*
X3414877Y2343150D01*
X3401822Y2347214D01*
X3388461Y2349449D01*
X3374745Y2349906D01*
X3361232Y2348534D01*
X3347974Y2345385D01*
X3335274Y2340457D01*
X3323234Y2333904D01*
X3312261Y2325827D01*
X3302508Y2316327D01*
X3294024Y2305710D01*
X3287064Y2293975D01*
X3281730Y2281377D01*
X3278124Y2268220D01*
X3276295Y2254707D01*
X3276295Y2241042D01*
X3278124Y2227580D01*
X3281730Y2214422D01*
X3287064Y2201824D01*
X3294024Y2190089D01*
X3300120Y2182418D01*
X3301695Y2179472D01*
X3302254Y2176119D01*
X3302254Y2004110D01*
X3301492Y2000250D01*
X3299307Y1996998D01*
X3084017Y1781657D01*
X3078327Y1774799D01*
X3072333Y1765147D01*
X3071215Y1762912D01*
X3067812Y1754784D01*
X3064916Y1743760D01*
X3064510Y1741322D01*
X3063595Y1729739D01*
X3063595Y1691233D01*
X3063341Y1688795D01*
X3062427Y1686407D01*
X3056534Y1675231D01*
X3052165Y1663395D01*
X3049371Y1649882D01*
X3047746Y1646174D01*
X3044850Y1643430D01*
X3041091Y1641957D01*
X3037078Y1642059D01*
X3033420Y1643837D01*
X3030677Y1646783D01*
X3029356Y1650542D01*
X3028391Y1657197D01*
X3024936Y1669338D01*
X3019806Y1680972D01*
X3010204Y1696110D01*
X3009595Y1699564D01*
X3009595Y1971192D01*
X3008274Y1982419D01*
X3006191Y1991004D01*
X3001975Y2001570D01*
X2996336Y2011375D01*
X2994863Y2013407D01*
X2989173Y2020265D01*
X2949041Y2060498D01*
X2946908Y2063750D01*
X2946095Y2067610D01*
X2946095Y2176018D01*
X2946755Y2179726D01*
X2948686Y2182876D01*
X2950311Y2184654D01*
X2958033Y2195880D01*
X2964230Y2208072D01*
X2968650Y2220925D01*
X2971393Y2234285D01*
X2972308Y2247849D01*
X2971393Y2261463D01*
X2968650Y2274824D01*
X2964230Y2287727D01*
X2958033Y2299919D01*
X2950311Y2311146D01*
X2941218Y2321255D01*
X2930804Y2330043D01*
X2919222Y2337460D01*
X2906877Y2343150D01*
X2893822Y2347214D01*
X2880461Y2349449D01*
X2866745Y2349906D01*
X2856433Y2348839D01*
X2851962Y2349398D01*
X2848254Y2351786D01*
X2630068Y2569972D01*
X2627833Y2573223D01*
X2627122Y2577134D01*
X2627122Y2742692D01*
X2627731Y2746298D01*
X2629611Y2749346D01*
X2634183Y2754630D01*
X2641854Y2765958D01*
X2647848Y2778252D01*
X2652217Y2791256D01*
X2654909Y2804617D01*
X2655824Y2818282D01*
X2654909Y2831947D01*
X2652217Y2845358D01*
X2647848Y2858312D01*
X2641854Y2870606D01*
X2634183Y2881985D01*
X2625191Y2892247D01*
X2614879Y2901289D01*
X2603550Y2908960D01*
X2591206Y2914954D01*
X2578252Y2919323D01*
X2564841Y2922016D01*
X2551176Y2922930D01*
X2537561Y2922016D01*
X2524150Y2919323D01*
X2511145Y2914954D01*
X2498852Y2908960D01*
X2487523Y2901289D01*
X2477211Y2892247D01*
X2468168Y2881985D01*
X2460548Y2870606D01*
X2454554Y2858312D01*
X2450134Y2845358D01*
X2447442Y2831947D01*
X2446528Y2818282D01*
X2447442Y2804617D01*
X2450134Y2791256D01*
X2454554Y2778252D01*
X2460548Y2765958D01*
X2468168Y2754630D01*
X2472791Y2749346D01*
X2474620Y2746298D01*
X2475280Y2742692D01*
X2475331Y2538831D01*
X2476550Y2527554D01*
X2478684Y2518918D01*
X2482900Y2508351D01*
X2484018Y2506167D01*
X2488590Y2498547D01*
X2490012Y2496566D01*
X2495702Y2489708D01*
X2736596Y2248712D01*
X2738831Y2245410D01*
X2739542Y2241499D01*
X2738831Y2237638D01*
X2736596Y2234387D01*
X2643886Y2141677D01*
X2640380Y2139340D01*
X2636113Y2138730D01*
X2628950Y2139188D01*
X2614168Y2138273D01*
X2599690Y2135530D01*
X2585618Y2131060D01*
X2572156Y2124862D01*
X2559659Y2117090D01*
X2548128Y2107895D01*
X2537866Y2097278D01*
X2529027Y2085492D01*
X2521559Y2072741D01*
X2515819Y2059127D01*
X2511806Y2044954D01*
X2509520Y2030323D01*
X2509062Y2015642D01*
X2510434Y2000961D01*
X2513634Y1986483D01*
X2518511Y1972614D01*
X2525064Y1959406D01*
X2533243Y1947062D01*
X2542844Y1935835D01*
X2553766Y1925878D01*
X2565755Y1917395D01*
X2578811Y1910384D01*
X2592527Y1905050D01*
X2606852Y1901443D01*
X2621483Y1899615D01*
X2636316Y1899615D01*
X2650947Y1901443D01*
X2665222Y1905050D01*
X2678988Y1910384D01*
X2691993Y1917395D01*
X2704033Y1925878D01*
X2715006Y1935835D01*
X2724556Y1947062D01*
X2732684Y1959406D01*
X2739288Y1972614D01*
X2744165Y1986483D01*
X2747314Y2000961D01*
X2748686Y2015642D01*
X2748330Y2026869D01*
X2749042Y2030933D01*
X2751328Y2034336D01*
X2776931Y2060041D01*
X2780233Y2062175D01*
X2784094Y2062988D01*
X2788005Y2062175D01*
X2791307Y2060041D01*
X2793492Y2056688D01*
X2794254Y2052828D01*
X2794304Y2029307D01*
X2795168Y2020519D01*
X2797708Y2009444D01*
X2798470Y2007107D01*
X2801874Y1998878D01*
X2802991Y1996693D01*
X2807563Y1989074D01*
X2808986Y1987042D01*
X2814675Y1980184D01*
X2854807Y1940001D01*
X2856992Y1936699D01*
X2857754Y1932838D01*
X2857754Y1680159D01*
X2857449Y1677720D01*
X2852216Y1663395D01*
X2849524Y1650949D01*
X2848610Y1638300D01*
X2849524Y1625650D01*
X2852216Y1613204D01*
X2856534Y1601368D01*
X2862427Y1590192D01*
X2869895Y1579930D01*
X2878734Y1570736D01*
X2888691Y1562912D01*
X2899714Y1556613D01*
X2911500Y1551838D01*
X2923743Y1548790D01*
X2936341Y1547469D01*
X2949041Y1547876D01*
X2961538Y1550162D01*
X2973578Y1554022D01*
X2985008Y1559560D01*
X2995523Y1566722D01*
X3004870Y1575155D01*
X3013100Y1584858D01*
X3019806Y1595628D01*
X3024936Y1607261D01*
X3028442Y1619504D01*
X3029458Y1625803D01*
X3030778Y1629511D01*
X3033522Y1632457D01*
X3037128Y1634134D01*
X3041142Y1634236D01*
X3044901Y1632762D01*
X3047796Y1630019D01*
X3049371Y1626362D01*
X3052165Y1613204D01*
X3056534Y1601368D01*
X3062325Y1590294D01*
X3063240Y1588008D01*
X3063544Y1585518D01*
X3063544Y1486103D01*
X3062782Y1482242D01*
X3060547Y1478889D01*
X3044850Y1463141D01*
X3041548Y1460906D01*
X3037636Y1460093D01*
X2880461Y1460093D01*
X2876600Y1460855D01*
X2873298Y1463141D01*
X2655265Y1681073D01*
X2648458Y1686661D01*
X2638806Y1692757D01*
X2628392Y1697228D01*
X2626106Y1697989D01*
X2614980Y1700580D01*
X2606141Y1701342D01*
X2214270Y1701393D01*
X2210409Y1702155D01*
X2207107Y1704441D01*
X2204974Y1707692D01*
X2204161Y1711553D01*
X2204974Y1715465D01*
X2207107Y1718767D01*
X2277973Y1789684D01*
X2283663Y1796542D01*
X2285136Y1798574D01*
X2290775Y1808378D01*
X2294991Y1818944D01*
X2297074Y1827580D01*
X2298395Y1838807D01*
X2298395Y2176018D01*
X2299055Y2179726D01*
X2300986Y2182876D01*
X2302611Y2184654D01*
X2310333Y2195880D01*
X2316530Y2208072D01*
X2320950Y2220925D01*
X2323693Y2234285D01*
X2324608Y2247849D01*
X2323693Y2261463D01*
X2320950Y2274824D01*
X2316530Y2287727D01*
X2310333Y2299919D01*
X2302611Y2311146D01*
X2293518Y2321255D01*
X2283104Y2330043D01*
X2271522Y2337460D01*
X2259177Y2343150D01*
X2246122Y2347214D01*
X2232761Y2349449D01*
X2219045Y2349906D01*
X2205532Y2348534D01*
X2192274Y2345385D01*
X2179574Y2340457D01*
X2167534Y2333904D01*
X2156561Y2325827D01*
X2146808Y2316327D01*
X2138324Y2305710D01*
X2131364Y2293975D01*
X2126030Y2281377D01*
X2122424Y2268220D01*
X2120595Y2254707D01*
X2120595Y2241042D01*
X2122424Y2227580D01*
X2126030Y2214422D01*
X2131364Y2201824D01*
X2138324Y2190089D01*
X2144420Y2182418D01*
X2145995Y2179472D01*
X2146554Y2176119D01*
X2146554Y1877110D01*
X2145792Y1873250D01*
X2143607Y1869998D01*
X2005431Y1731822D01*
X2002586Y1729841D01*
X1999284Y1728876D01*
X1989175Y1727758D01*
X1976932Y1724710D01*
X1965147Y1720037D01*
X1954174Y1713687D01*
X1944166Y1705864D01*
X1935429Y1696720D01*
X1927961Y1686458D01*
X1921967Y1675231D01*
X1917598Y1663395D01*
X1914804Y1649882D01*
X1913229Y1646174D01*
X1910384Y1643430D01*
X1906524Y1641957D01*
X1902561Y1642059D01*
X1898904Y1643837D01*
X1896211Y1646783D01*
X1894839Y1650542D01*
X1893925Y1657197D01*
X1890420Y1669338D01*
X1885238Y1680972D01*
X1882139Y1685950D01*
X1880971Y1688490D01*
X1880565Y1691284D01*
X1879295Y1932838D01*
X1877974Y1944420D01*
X1875028Y1955342D01*
X1870557Y1965807D01*
X1864461Y1975357D01*
X1856841Y1984298D01*
X1793392Y2047646D01*
X1791207Y2050948D01*
X1790395Y2054860D01*
X1790395Y2161743D01*
X1791207Y2165604D01*
X1793392Y2168956D01*
X1796745Y2171141D01*
X1800606Y2171954D01*
X1844141Y2171954D01*
X1852980Y2172766D01*
X1855419Y2173173D01*
X1866392Y2176068D01*
X1874621Y2179472D01*
X1876806Y2180590D01*
X1886457Y2186635D01*
X1893265Y2192274D01*
X2352700Y2651709D01*
X2358390Y2658567D01*
X2364384Y2668219D01*
X2365502Y2670352D01*
X2369718Y2680919D01*
X2371801Y2689555D01*
X2372207Y2691993D01*
X2373122Y2703576D01*
X2373122Y2742692D01*
X2373731Y2746298D01*
X2375611Y2749346D01*
X2380183Y2754630D01*
X2387854Y2765958D01*
X2393848Y2778252D01*
X2398217Y2791256D01*
X2400909Y2804617D01*
X2401824Y2818282D01*
X2400909Y2831947D01*
X2398217Y2845358D01*
X2393848Y2858312D01*
X2387854Y2870606D01*
X2380183Y2881985D01*
X2371191Y2892247D01*
X2360879Y2901289D01*
X2349550Y2908960D01*
X2337206Y2914954D01*
X2324252Y2919323D01*
X2310841Y2922016D01*
X2297176Y2922930D01*
X2283561Y2922016D01*
X2270150Y2919323D01*
X2257145Y2914954D01*
X2244852Y2908960D01*
X2233523Y2901289D01*
X2223211Y2892247D01*
X2214168Y2881985D01*
X2206548Y2870606D01*
X2200554Y2858312D01*
X2196134Y2845358D01*
X2193442Y2831947D01*
X2192528Y2818282D01*
X2193442Y2804617D01*
X2196134Y2791256D01*
X2200554Y2778252D01*
X2206548Y2765958D01*
X2214168Y2754630D01*
X2218791Y2749346D01*
X2220620Y2746298D01*
X2221280Y2742692D01*
X2221280Y2739136D01*
X2220518Y2735224D01*
X2218334Y2731922D01*
X1813052Y2326741D01*
X1809800Y2324455D01*
X1805838Y2323693D01*
X1786331Y2323693D01*
X1782775Y2324354D01*
X1779727Y2326132D01*
X1775104Y2330043D01*
X1763522Y2337460D01*
X1751177Y2343150D01*
X1738122Y2347214D01*
X1724761Y2349449D01*
X1711045Y2349906D01*
X1697532Y2348534D01*
X1684274Y2345385D01*
X1671574Y2340457D01*
X1659534Y2333904D01*
X1648561Y2325827D01*
X1638807Y2316327D01*
X1630324Y2305710D01*
X1623364Y2293975D01*
X1618030Y2281377D01*
X1614424Y2268220D01*
X1612849Y2256586D01*
X1611934Y2253437D01*
X1610004Y2250744D01*
X1500886Y2141677D01*
X1497380Y2139340D01*
X1493113Y2138730D01*
X1485950Y2139188D01*
X1471168Y2138273D01*
X1456690Y2135530D01*
X1442618Y2131060D01*
X1429156Y2124862D01*
X1416659Y2117090D01*
X1405128Y2107895D01*
X1394866Y2097278D01*
X1386027Y2085492D01*
X1378559Y2072741D01*
X1372819Y2059127D01*
X1368806Y2044954D01*
X1366520Y2030323D01*
X1366062Y2015642D01*
X1367434Y2000961D01*
X1370634Y1986483D01*
X1375511Y1972614D01*
X1382064Y1959406D01*
X1390243Y1947062D01*
X1399844Y1935835D01*
X1410766Y1925878D01*
X1422755Y1917395D01*
X1435811Y1910384D01*
X1449527Y1905050D01*
X1463852Y1901443D01*
X1478483Y1899615D01*
X1493316Y1899615D01*
X1507947Y1901443D01*
X1522222Y1905050D01*
X1535988Y1910384D01*
X1548993Y1917395D01*
X1561033Y1925878D01*
X1572006Y1935835D01*
X1581556Y1947062D01*
X1589684Y1959406D01*
X1596288Y1972614D01*
X1601165Y1986483D01*
X1604314Y2000961D01*
X1605686Y2015642D01*
X1605330Y2026869D01*
X1606042Y2030933D01*
X1608328Y2034336D01*
X1621231Y2047341D01*
X1624533Y2049475D01*
X1628444Y2050338D01*
X1632305Y2049525D01*
X1635607Y2047341D01*
X1637792Y2044039D01*
X1638604Y2040128D01*
X1638655Y2016455D01*
X1639468Y2007768D01*
X1642008Y1996643D01*
X1642770Y1994306D01*
X1646174Y1986076D01*
X1647291Y1983892D01*
X1651914Y1976272D01*
X1658975Y1967433D01*
X1724761Y1901647D01*
X1726895Y1898396D01*
X1727707Y1894535D01*
X1728724Y1690624D01*
X1728470Y1688134D01*
X1727555Y1685848D01*
X1722018Y1675231D01*
X1717598Y1663395D01*
X1715007Y1650949D01*
X1714093Y1638300D01*
X1715007Y1625650D01*
X1717598Y1613204D01*
X1722018Y1601368D01*
X1727911Y1590192D01*
X1735378Y1579930D01*
X1744167Y1570736D01*
X1754225Y1562912D01*
X1765147Y1556613D01*
X1776882Y1551838D01*
X1789175Y1548790D01*
X1801825Y1547469D01*
X1814474Y1547876D01*
X1827022Y1550162D01*
X1839061Y1554022D01*
X1850491Y1559560D01*
X1860905Y1566722D01*
X1870354Y1575155D01*
X1878482Y1584858D01*
X1885238Y1595628D01*
X1890420Y1607261D01*
X1893925Y1619504D01*
X1894839Y1625803D01*
X1896211Y1629511D01*
X1898954Y1632457D01*
X1902663Y1634134D01*
X1906625Y1634236D01*
X1910384Y1632762D01*
X1913229Y1630019D01*
X1914804Y1626362D01*
X1917598Y1613204D01*
X1921967Y1601368D01*
X1927961Y1590192D01*
X1928774Y1587855D01*
X1929079Y1583436D01*
X1928317Y1579524D01*
X1926132Y1576273D01*
X1863801Y1513992D01*
X1860499Y1511757D01*
X1856638Y1511046D01*
X1699361Y1511046D01*
X1695500Y1511757D01*
X1692198Y1513992D01*
X1512265Y1693773D01*
X1505458Y1699514D01*
X1495806Y1705457D01*
X1493570Y1706575D01*
X1483004Y1710791D01*
X1474419Y1712874D01*
X1463141Y1714195D01*
X1070813Y1714246D01*
X1066952Y1714957D01*
X1063650Y1717192D01*
X1061466Y1720443D01*
X1060704Y1724355D01*
X1060704Y1838096D01*
X1061466Y1842007D01*
X1063650Y1845310D01*
X1160373Y1942084D01*
X1166063Y1948942D01*
X1167485Y1950974D01*
X1172057Y1958593D01*
X1173175Y1960778D01*
X1176578Y1969007D01*
X1177340Y1971344D01*
X1179474Y1979980D01*
X1179880Y1982419D01*
X1180744Y1991207D01*
X1180795Y2176018D01*
X1181455Y2179726D01*
X1183386Y2182876D01*
X1185011Y2184654D01*
X1192733Y2195880D01*
X1198930Y2208072D01*
X1203350Y2220925D01*
X1206042Y2234285D01*
X1206957Y2247849D01*
X1206042Y2261463D01*
X1203350Y2274824D01*
X1198930Y2287727D01*
X1192733Y2299919D01*
X1185011Y2311146D01*
X1175867Y2321255D01*
X1165453Y2330043D01*
X1153922Y2337460D01*
X1141577Y2343150D01*
X1128522Y2347214D01*
X1115110Y2349449D01*
X1101445Y2349906D01*
X1087882Y2348534D01*
X1074623Y2345385D01*
X1061923Y2340457D01*
X1049934Y2333904D01*
X1038961Y2325827D01*
X1029157Y2316327D01*
X1020724Y2305710D01*
X1013815Y2293975D01*
X1008430Y2281377D01*
X1004824Y2268220D01*
X1002995Y2254707D01*
X1002995Y2241042D01*
X1004824Y2227580D01*
X1008430Y2214422D01*
X1013815Y2201824D01*
X1020724Y2190089D01*
X1026769Y2182418D01*
X1028395Y2179472D01*
X1028953Y2176119D01*
X1028953Y2029510D01*
X1028192Y2025650D01*
X1026007Y2022398D01*
X929233Y1925523D01*
X922172Y1916684D01*
X917600Y1909114D01*
X916482Y1906879D01*
X913079Y1898650D01*
X912317Y1896364D01*
X910132Y1887677D01*
X908913Y1876450D01*
X908862Y1691233D01*
X908558Y1688795D01*
X907694Y1686407D01*
X901750Y1675231D01*
X897382Y1663395D01*
X894638Y1649882D01*
X893013Y1646174D01*
X890117Y1643430D01*
X886307Y1641957D01*
X882294Y1642059D01*
X878636Y1643837D01*
X875944Y1646783D01*
X874572Y1650542D01*
X873658Y1657197D01*
X870203Y1669338D01*
X863701Y1683816D01*
X863295Y1686610D01*
X863244Y1983892D01*
X862380Y1992680D01*
X861974Y1995119D01*
X859840Y2003704D01*
X859078Y2006041D01*
X855675Y2014270D01*
X854557Y2016455D01*
X849985Y2024075D01*
X848563Y2026107D01*
X842873Y2032965D01*
X688340Y2187600D01*
X686054Y2191105D01*
X685393Y2195322D01*
X686460Y2199335D01*
X690930Y2208072D01*
X695350Y2220925D01*
X698042Y2234285D01*
X698957Y2247849D01*
X698042Y2261463D01*
X695350Y2274824D01*
X690930Y2287727D01*
X684733Y2299919D01*
X677011Y2311146D01*
X667867Y2321255D01*
X657453Y2330043D01*
X645922Y2337460D01*
X633577Y2343150D01*
X620522Y2347214D01*
X607110Y2349449D01*
X593445Y2349906D01*
X579882Y2348534D01*
X566623Y2345385D01*
X553923Y2340457D01*
X541934Y2333904D01*
X536600Y2329942D01*
X532485Y2328214D01*
X528066Y2328316D01*
X524103Y2330297D01*
X521360Y2333802D01*
X520395Y2338120D01*
X520395Y2364536D01*
X521157Y2368397D01*
X523392Y2371750D01*
X599948Y2448356D01*
X603250Y2450541D01*
X607161Y2451354D01*
X1831441Y2451354D01*
X1840280Y2452166D01*
X1842719Y2452573D01*
X1853692Y2455468D01*
X1861921Y2458872D01*
X1864106Y2459990D01*
X1873757Y2466035D01*
X1880565Y2471674D01*
X2098700Y2689809D01*
X2104390Y2696667D01*
X2110384Y2706319D01*
X2111502Y2708452D01*
X2115718Y2719019D01*
X2117801Y2727655D01*
X2118207Y2730093D01*
X2119020Y2738882D01*
X2119122Y2742793D01*
X2119782Y2746349D01*
X2121611Y2749346D01*
X2126183Y2754630D01*
X2133854Y2765958D01*
X2139848Y2778252D01*
X2144217Y2791256D01*
X2146909Y2804617D01*
X2147824Y2818282D01*
X2146909Y2831947D01*
X2144217Y2845358D01*
X2139848Y2858312D01*
X2133854Y2870606D01*
X2126183Y2881985D01*
X2117191Y2892247D01*
X2106879Y2901289D01*
X2095550Y2908960D01*
X2083206Y2914954D01*
X2070252Y2919323D01*
X2056841Y2922016D01*
X2043175Y2922930D01*
X2029561Y2922016D01*
X2016150Y2919323D01*
X2003145Y2914954D01*
X1990852Y2908960D01*
X1979523Y2901289D01*
X1969211Y2892247D01*
X1960168Y2881985D01*
X1952548Y2870606D01*
X1946554Y2858312D01*
X1942134Y2845358D01*
X1939442Y2831947D01*
X1938528Y2818282D01*
X1939442Y2804617D01*
X1942134Y2791256D01*
X1946554Y2778252D01*
X1951888Y2767380D01*
X1952904Y2763316D01*
X1952243Y2759202D01*
X1949957Y2755696D01*
X1800352Y2606141D01*
X1797100Y2603855D01*
X1793138Y2603093D01*
X568858Y2603042D01*
X560019Y2602280D01*
X548944Y2599690D01*
X546608Y2598928D01*
X536194Y2594457D01*
X528574Y2589784D01*
X519734Y2582773D01*
X388975Y2452014D01*
X381762Y2443073D01*
X376123Y2433269D01*
X371957Y2422652D01*
X369519Y2411577D01*
X368554Y2399893D01*
X368554Y2299512D01*
X367944Y2296058D01*
X366217Y2293061D01*
X363575Y2290724D01*
X360273Y2289505D01*
X351739Y2287930D01*
X337667Y2283460D01*
X324256Y2277262D01*
X311708Y2269490D01*
X300228Y2260295D01*
X289966Y2249678D01*
X281127Y2237892D01*
X273659Y2225141D01*
X267919Y2211527D01*
X263906Y2197354D01*
X261620Y2182723D01*
X261162Y2168042D01*
X262534Y2153361D01*
X265684Y2138883D01*
X270611Y2125014D01*
X277215Y2111806D01*
X285292Y2099462D01*
X294944Y2088235D01*
X305816Y2078278D01*
X317855Y2069795D01*
X330860Y2062784D01*
X344627Y2057450D01*
X358952Y2053843D01*
X373583Y2052015D01*
X388366Y2052015D01*
X402996Y2053843D01*
X417322Y2057450D01*
X431088Y2062784D01*
X444093Y2069795D01*
X456133Y2078278D01*
X467055Y2088235D01*
X470458Y2092248D01*
X473913Y2094839D01*
X478180Y2095754D01*
X523392Y2095804D01*
X534619Y2097125D01*
X542950Y2099157D01*
X550468Y2102104D01*
X554329Y2102764D01*
X558139Y2102053D01*
X561390Y2099818D01*
X708507Y1952701D01*
X710692Y1949399D01*
X711454Y1945538D01*
X711454Y1694942D01*
X710946Y1691792D01*
X709523Y1688998D01*
X707694Y1686458D01*
X701751Y1675231D01*
X697382Y1663395D01*
X694740Y1650949D01*
X693877Y1638300D01*
X694740Y1625650D01*
X697382Y1613204D01*
X701751Y1601368D01*
X707694Y1590192D01*
X715162Y1579930D01*
X723950Y1570736D01*
X733958Y1562912D01*
X744931Y1556613D01*
X756666Y1551838D01*
X768959Y1548790D01*
X781608Y1547469D01*
X794258Y1547876D01*
X806754Y1550162D01*
X818794Y1554022D01*
X830224Y1559560D01*
X840689Y1566722D01*
X850188Y1575155D01*
X858266Y1584858D01*
X865022Y1595628D01*
X870203Y1607261D01*
X873658Y1619504D01*
X874623Y1625803D01*
X875995Y1629511D01*
X878738Y1632457D01*
X882396Y1634134D01*
X886409Y1634236D01*
X890117Y1632762D01*
X893013Y1630019D01*
X894638Y1626362D01*
X897382Y1613204D01*
X901750Y1601368D01*
X907643Y1590192D01*
X908558Y1587855D01*
X908862Y1585417D01*
X908862Y1502918D01*
X908100Y1499006D01*
X905865Y1495704D01*
X885952Y1475841D01*
X882650Y1473606D01*
X878738Y1472793D01*
X690727Y1472946D01*
X687628Y1473403D01*
X684834Y1474825D01*
X682650Y1476959D01*
X230327Y2079904D01*
X228854Y2082800D01*
X228295Y2086000D01*
X228295Y2682036D01*
X229057Y2685948D01*
X231292Y2689250D01*
X281432Y2739390D01*
X284734Y2741625D01*
X288645Y2742438D01*
X1675180Y2742438D01*
X1679295Y2741523D01*
X1682699Y2739034D01*
X1684832Y2735376D01*
X1687220Y2728315D01*
X1690268Y2723438D01*
X1694332Y2719324D01*
X1699209Y2716276D01*
X1704695Y2714345D01*
X1710994Y2713634D01*
X1867407Y2713634D01*
X1873656Y2714345D01*
X1879193Y2716276D01*
X1884070Y2719324D01*
X1888134Y2723438D01*
X1891182Y2728315D01*
X1893112Y2733802D01*
X1893824Y2740101D01*
X1893824Y2896463D01*
X1893112Y2902762D01*
X1891182Y2908249D01*
X1888134Y2913126D01*
X1884070Y2917291D01*
X1879193Y2920288D01*
X1873656Y2922219D01*
X1867407Y2922930D01*
X1710994Y2922930D01*
X1704695Y2922219D01*
X1699209Y2920288D01*
X1694332Y2917291D01*
X1690268Y2913126D01*
X1687220Y2908300D01*
X1684832Y2901238D01*
X1682699Y2897530D01*
X1679295Y2895041D01*
X1675180Y2894177D01*
X250342Y2894126D01*
X241554Y2893364D01*
X230428Y2890774D01*
X228092Y2890012D01*
X217678Y2885541D01*
X210058Y2880868D01*
X201218Y2873857D01*
X96875Y2769463D01*
X89814Y2760624D01*
X84074Y2750820D01*
X80670Y2742590D01*
X79908Y2740253D01*
X77774Y2731668D01*
X76555Y2720340D01*
X76555Y2054047D01*
X77419Y2045868D01*
X77927Y2042769D01*
X79908Y2034793D01*
X80924Y2031796D01*
X84074Y2024227D01*
X85496Y2021484D01*
X89763Y2014423D01*
X454609Y1527911D01*
X456336Y1524304D01*
X456539Y1520342D01*
X455168Y1516532D01*
X452475Y1513586D01*
X448868Y1511960D01*
X444855Y1511757D01*
X441096Y1513128D01*
X437692Y1515262D01*
X434340Y1516888D01*
X434340Y1462989D01*
X498195Y1462989D01*
X501243Y1462532D01*
X504037Y1461160D01*
X506323Y1458976D01*
X588111Y1349908D01*
X596036Y1341374D01*
X604977Y1334312D01*
X614730Y1328623D01*
X625297Y1324457D01*
X636320Y1322019D01*
X648055Y1321054D01*
X917092Y1321054D01*
X925880Y1321866D01*
X928319Y1322273D01*
X939292Y1325168D01*
X947470Y1328572D01*
X949706Y1329690D01*
X957275Y1334262D01*
X966165Y1341374D01*
X1040282Y1415491D01*
X1047343Y1424330D01*
X1051966Y1431950D01*
X1053084Y1434134D01*
X1057300Y1444701D01*
X1059383Y1453388D01*
X1059789Y1455826D01*
X1060704Y1467358D01*
X1060704Y1552194D01*
X1061415Y1556105D01*
X1063650Y1559407D01*
X1066952Y1561592D01*
X1070813Y1562354D01*
X1424838Y1562354D01*
X1428699Y1561592D01*
X1432001Y1559407D01*
X1611934Y1379626D01*
X1618742Y1373886D01*
X1620774Y1372463D01*
X1630629Y1366774D01*
X1638807Y1363370D01*
X1641144Y1362608D01*
X1649780Y1360525D01*
X1661007Y1359204D01*
X1894941Y1359204D01*
X1906219Y1360525D01*
X1914804Y1362608D01*
X1917141Y1363370D01*
X1925370Y1366774D01*
X1935175Y1372463D01*
X1937257Y1373886D01*
X1945995Y1381455D01*
X2060498Y1496009D01*
X2067661Y1504848D01*
X2073300Y1514703D01*
X2077516Y1525219D01*
X2079548Y1533601D01*
X2080361Y1540560D01*
X2081479Y1544116D01*
X2083663Y1547012D01*
X2086813Y1548942D01*
X2090420Y1549654D01*
X2567838Y1549654D01*
X2571800Y1548841D01*
X2575052Y1546656D01*
X2793034Y1328674D01*
X2801874Y1321612D01*
X2809494Y1316990D01*
X2811729Y1315872D01*
X2819908Y1312468D01*
X2830880Y1309573D01*
X2833319Y1309166D01*
X2842158Y1308354D01*
G37*
G36*
X1378559Y1310589D02*
G01*
X1432560Y1310589D01*
X1432560Y1364488D01*
X1429156Y1362862D01*
X1416659Y1355090D01*
X1405128Y1345895D01*
X1394866Y1335278D01*
X1386027Y1323492D01*
G37*
G36*
X1539240Y1310589D02*
G01*
X1593189Y1310589D01*
X1585772Y1323492D01*
X1576882Y1335278D01*
X1566672Y1345895D01*
X1555140Y1355090D01*
X1542643Y1362862D01*
X1539240Y1364488D01*
G37*
G36*
X2682240Y1310589D02*
G01*
X2736189Y1310589D01*
X2728823Y1323492D01*
X2719882Y1335278D01*
X2709672Y1345895D01*
X2698140Y1355090D01*
X2685643Y1362862D01*
X2682240Y1364488D01*
G37*
G36*
X2521559Y1310589D02*
G01*
X2575560Y1310589D01*
X2575560Y1364488D01*
X2572156Y1362862D01*
X2559659Y1355090D01*
X2548128Y1345895D01*
X2537866Y1335278D01*
X2529027Y1323492D01*
G37*
G36*
X3672840Y1323289D02*
G01*
X3726789Y1323289D01*
X3719423Y1336192D01*
X3710482Y1347978D01*
X3700272Y1358595D01*
X3688740Y1367790D01*
X3676243Y1375562D01*
X3672840Y1377188D01*
G37*
G36*
X3512159Y1323289D02*
G01*
X3566160Y1323289D01*
X3566160Y1377188D01*
X3562756Y1375562D01*
X3550259Y1367790D01*
X3538728Y1358595D01*
X3528466Y1347978D01*
X3519627Y1336192D01*
G37*
G36*
X273659Y1462989D02*
G01*
X327660Y1462989D01*
X327660Y1516888D01*
X324256Y1515262D01*
X311708Y1507490D01*
X300228Y1498295D01*
X289966Y1487678D01*
X281127Y1475892D01*
G37*
G36*
X3104896Y2724404D02*
G01*
X3111550Y2727655D01*
X3122879Y2735275D01*
X3133191Y2744368D01*
X3142183Y2754630D01*
X3149854Y2765958D01*
X3153054Y2772562D01*
X3104896Y2772562D01*
G37*
G36*
X3013456Y2724404D02*
G01*
X3013456Y2772562D01*
X2965297Y2772562D01*
X2968548Y2765958D01*
X2976168Y2754630D01*
X2985211Y2744368D01*
X2995523Y2735275D01*
X3006852Y2727655D01*
G37*
G36*
X2965297Y2864053D02*
G01*
X3013456Y2864053D01*
X3013456Y2912160D01*
X3006852Y2908960D01*
X2995523Y2901289D01*
X2985211Y2892247D01*
X2976168Y2881985D01*
X2968548Y2870606D01*
G37*
G36*
X3104896Y2864053D02*
G01*
X3153054Y2864053D01*
X3149854Y2870606D01*
X3142183Y2881985D01*
X3133191Y2892247D01*
X3122879Y2901289D01*
X3111550Y2908960D01*
X3104896Y2912160D01*
G37*

%LPD*%
D10*
X2844802Y2247900D02*
G01*
X2844802Y2235202D01*
X2628900Y2019300D01*
X2551201Y2818307D02*
G01*
X2551201Y2541498D01*
X2844800Y2247900D01*
X1689102Y2247900D02*
G01*
X1689102Y2222502D01*
X1485900Y2019300D01*
X444502Y2400300D02*
G01*
X444502Y2235202D01*
X381000Y2171700D01*
X3619500Y2032000D02*
G01*
X3619502Y2032000D01*
X3835402Y2247900D01*
X3835400Y2247900D02*
G01*
X3835400Y2146300D01*
X3975100Y2006600D01*
X3975100Y1640900D01*
X3972493Y1638294D01*
X2870200Y2247900D02*
G01*
X2870200Y2032000D01*
X2933700Y1968500D01*
X2933700Y1644147D01*
X2939552Y1638294D01*
X381000Y2171700D02*
G01*
X520702Y2171700D01*
X596902Y2247900D01*
X596900Y2247900D02*
G01*
X596900Y2171700D01*
X787400Y1981200D01*
X787400Y1640900D01*
X784793Y1638294D01*
X1714525Y2247823D02*
G01*
X1714525Y2019223D01*
X1803425Y1930323D01*
X1804949Y1638223D01*
X1689125Y2247823D02*
G01*
X1841525Y2247823D01*
X2297201Y2703499D01*
X2297201Y2818307D01*
X2043201Y2818307D02*
G01*
X2043201Y2741599D01*
X1828825Y2527223D01*
X571525Y2527223D01*
X444525Y2400223D01*
X2628927Y253923D02*
G01*
X2628902Y457200D01*
X2895602Y723900D01*
X2908302Y723900D01*
X2057402Y723900D02*
G01*
X2362202Y469900D01*
X2362202Y266700D01*
X2374902Y254000D01*
X393700Y292100D02*
G01*
X393700Y527047D01*
X850902Y984250D01*
X1498600Y292100D02*
G01*
X1498600Y584197D01*
X1905002Y990600D01*
X2051052Y990600D01*
X2057402Y984250D01*
X3403600Y292100D02*
G01*
X3403600Y609602D01*
X3035302Y977900D01*
X2914652Y977900D01*
X2908302Y984250D01*
X4394200Y292100D02*
G01*
X4394200Y673102D01*
X4102102Y965200D01*
X4006852Y965200D01*
X3987802Y984250D01*
X2120925Y253923D02*
G01*
X1981225Y253923D01*
X1816125Y88823D01*
X1054125Y88823D01*
X850925Y292023D01*
X850925Y723823D01*
X2882925Y253923D02*
G01*
X3022625Y253923D01*
X3187725Y88823D01*
X3759225Y88823D01*
X3987825Y317423D01*
X3987825Y736523D01*
X4172483Y1638223D02*
G01*
X4172483Y1543481D01*
X4051325Y1422323D01*
X3848125Y1422323D01*
X3632225Y1638223D01*
X3139465Y1638223D01*
X3139465Y1625523D02*
G01*
X3139465Y1450517D01*
X3073425Y1384223D01*
X2844825Y1384223D01*
X2603525Y1625523D01*
X2005101Y1625523D01*
X2005009Y1638294D02*
G01*
X2005009Y1547809D01*
X1892300Y1435100D01*
X1663700Y1435100D01*
X1460500Y1638300D01*
X984798Y1638300D01*
X2805201Y2818307D02*
G01*
X2805201Y2744647D01*
X3086125Y2463723D01*
X3619525Y2463723D01*
X3835425Y2247823D01*
X984793Y1638294D02*
G01*
X984793Y1873793D01*
X1104900Y1993900D01*
X1104900Y2247900D01*
X2005009Y1638294D02*
G01*
X2019294Y1638294D01*
X2222500Y1841500D01*
X2222500Y2247900D01*
X3139551Y1638294D02*
G01*
X3139551Y1729851D01*
X3378200Y1968500D01*
X3378200Y2247900D01*
X4172493Y1638294D02*
G01*
X4172493Y1695993D01*
X4343400Y1866900D01*
X4343400Y2247900D01*
X984783Y1638223D02*
G01*
X984783Y1467281D01*
X914425Y1396923D01*
X647700Y1397000D01*
X152425Y2057323D01*
X152425Y2717723D01*
X253009Y2818307D01*
X1789201Y2818307D01*
D11*
G01*
X984783Y1638300D03*
G01*
X784783Y1638300D03*
G01*
X2004999Y1638300D03*
G01*
X1805000Y1638300D03*
G01*
X3139541Y1638300D03*
G01*
X2939541Y1638300D03*
G01*
X4172483Y1638300D03*
G01*
X3972483Y1638300D03*
D12*
G01*
X3059201Y2818307D03*
G01*
X2805201Y2818307D03*
G01*
X2551201Y2818307D03*
G01*
X2297201Y2818307D03*
G01*
X2043201Y2818307D03*
D13*
G01*
X1789201Y2818307D03*
G01*
X2120900Y254000D03*
D12*
G01*
X2374900Y254000D03*
G01*
X2628900Y254000D03*
G01*
X2882900Y254000D03*
D14*
G01*
X850900Y730250D03*
G01*
X850900Y984250D03*
G01*
X2057400Y730250D03*
G01*
X2057400Y984250D03*
G01*
X2908300Y730250D03*
G01*
X2908300Y984250D03*
G01*
X3987800Y730250D03*
G01*
X3987800Y984250D03*
D15*
G01*
X381000Y1409700D03*
G01*
X381000Y2171700D03*
G01*
X1485900Y1257300D03*
G01*
X1485900Y2019300D03*
G01*
X2628900Y1257300D03*
G01*
X2628900Y2019300D03*
G01*
X3619500Y1270000D03*
G01*
X3619500Y2032000D03*
G01*
X393700Y1054100D03*
G01*
X393700Y292100D03*
G01*
X1498600Y1054100D03*
G01*
X1498600Y292100D03*
G01*
X3403600Y1054100D03*
G01*
X3403600Y292100D03*
G01*
X4394200Y1054100D03*
G01*
X4394200Y292100D03*
D16*
G01*
X596900Y2247900D03*
G01*
X1104900Y2247900D03*
G01*
X1714500Y2247900D03*
G01*
X2222500Y2247900D03*
G01*
X2870200Y2247900D03*
G01*
X3378200Y2247900D03*
G01*
X3835400Y2247900D03*
G01*
X4343400Y2247900D03*
M02*
