G04 Layer: TopSilkscreenLayer*
G04 EasyEDA v6.5.46, 2025-07-09 13:41:03*
G04 12fb059d76d7480aa4ea8a5eff3d1b86,10*
G04 Gerber Generator version 0.2*
G04 Scale: 100 percent, Rotated: No, Reflected: No *
G04 Dimensions in millimeters *
G04 leading zeros omitted , absolute positions ,4 integer and 5 decimal *
%FSLAX45Y45*%
%MOMM*%

%ADD10C,0.1524*%
%ADD11C,0.2540*%
%ADD12C,0.2032*%
%ADD13C,0.2030*%
%ADD14C,0.3000*%
%ADD15C,0.0104*%

%LPD*%
D10*
X829040Y1269512D02*
G01*
X834374Y1259098D01*
X844788Y1248684D01*
X854948Y1243604D01*
X875776Y1243604D01*
X886190Y1248684D01*
X896604Y1259098D01*
X901938Y1269512D01*
X907018Y1285260D01*
X907018Y1311168D01*
X901938Y1326662D01*
X896604Y1337076D01*
X886190Y1347490D01*
X875776Y1352570D01*
X854948Y1352570D01*
X844788Y1347490D01*
X834374Y1337076D01*
X829040Y1326662D01*
X794750Y1264432D02*
G01*
X784336Y1259098D01*
X768842Y1243604D01*
X768842Y1352570D01*
X1849257Y1269512D02*
G01*
X1854591Y1259098D01*
X1865005Y1248684D01*
X1875165Y1243604D01*
X1895993Y1243604D01*
X1906407Y1248684D01*
X1916821Y1259098D01*
X1922155Y1269512D01*
X1927235Y1285260D01*
X1927235Y1311168D01*
X1922155Y1326662D01*
X1916821Y1337076D01*
X1906407Y1347490D01*
X1895993Y1352570D01*
X1875165Y1352570D01*
X1865005Y1347490D01*
X1854591Y1337076D01*
X1849257Y1326662D01*
X1809887Y1269512D02*
G01*
X1809887Y1264432D01*
X1804553Y1254018D01*
X1799473Y1248684D01*
X1789059Y1243604D01*
X1768231Y1243604D01*
X1757817Y1248684D01*
X1752737Y1254018D01*
X1747403Y1264432D01*
X1747403Y1274846D01*
X1752737Y1285260D01*
X1763151Y1300754D01*
X1814967Y1352570D01*
X1742323Y1352570D01*
X2983798Y1269512D02*
G01*
X2989132Y1259098D01*
X2999546Y1248684D01*
X3009706Y1243604D01*
X3030534Y1243604D01*
X3040948Y1248684D01*
X3051362Y1259098D01*
X3056696Y1269512D01*
X3061776Y1285260D01*
X3061776Y1311168D01*
X3056696Y1326662D01*
X3051362Y1337076D01*
X3040948Y1347490D01*
X3030534Y1352570D01*
X3009706Y1352570D01*
X2999546Y1347490D01*
X2989132Y1337076D01*
X2983798Y1326662D01*
X2939094Y1243604D02*
G01*
X2881944Y1243604D01*
X2913186Y1285260D01*
X2897692Y1285260D01*
X2887278Y1290340D01*
X2881944Y1295420D01*
X2876864Y1311168D01*
X2876864Y1321582D01*
X2881944Y1337076D01*
X2892358Y1347490D01*
X2908106Y1352570D01*
X2923600Y1352570D01*
X2939094Y1347490D01*
X2944428Y1342410D01*
X2949508Y1331996D01*
X4016740Y1269512D02*
G01*
X4022074Y1259098D01*
X4032488Y1248684D01*
X4042648Y1243604D01*
X4063476Y1243604D01*
X4073890Y1248684D01*
X4084304Y1259098D01*
X4089638Y1269512D01*
X4094718Y1285260D01*
X4094718Y1311168D01*
X4089638Y1326662D01*
X4084304Y1337076D01*
X4073890Y1347490D01*
X4063476Y1352570D01*
X4042648Y1352570D01*
X4032488Y1347490D01*
X4022074Y1337076D01*
X4016740Y1326662D01*
X3930634Y1243604D02*
G01*
X3982450Y1316248D01*
X3904472Y1316248D01*
X3930634Y1243604D02*
G01*
X3930634Y1352570D01*
X2398801Y3086023D02*
G01*
X2398801Y2977057D01*
X2471445Y3086023D02*
G01*
X2471445Y2977057D01*
X2398801Y3034207D02*
G01*
X2471445Y3034207D01*
X2505735Y3065195D02*
G01*
X2516149Y3070529D01*
X2531897Y3086023D01*
X2531897Y2977057D01*
X2476500Y521715D02*
G01*
X2476500Y412750D01*
X2549143Y521715D02*
G01*
X2549143Y412750D01*
X2476500Y469900D02*
G01*
X2549143Y469900D01*
X2588768Y495807D02*
G01*
X2588768Y500887D01*
X2593847Y511301D01*
X2599181Y516635D01*
X2609595Y521715D01*
X2630170Y521715D01*
X2640584Y516635D01*
X2645918Y511301D01*
X2650997Y500887D01*
X2650997Y490473D01*
X2645918Y480060D01*
X2635504Y464565D01*
X2583434Y412750D01*
X2656331Y412750D01*
X876300Y538734D02*
G01*
X876300Y647700D01*
X876300Y647700D02*
G01*
X814069Y647700D01*
X779779Y538734D02*
G01*
X779779Y647700D01*
X779779Y538734D02*
G01*
X712215Y538734D01*
X779779Y590550D02*
G01*
X738123Y590550D01*
X779779Y647700D02*
G01*
X712215Y647700D01*
X677925Y538734D02*
G01*
X677925Y647700D01*
X677925Y538734D02*
G01*
X641350Y538734D01*
X625855Y543813D01*
X615442Y554227D01*
X610361Y564642D01*
X605027Y580389D01*
X605027Y606297D01*
X610361Y621792D01*
X615442Y632205D01*
X625855Y642619D01*
X641350Y647700D01*
X677925Y647700D01*
X570737Y559561D02*
G01*
X560323Y554227D01*
X544829Y538734D01*
X544829Y647700D01*
X2082800Y538734D02*
G01*
X2082800Y647700D01*
X2082800Y647700D02*
G01*
X2020570Y647700D01*
X1986279Y538734D02*
G01*
X1986279Y647700D01*
X1986279Y538734D02*
G01*
X1918715Y538734D01*
X1986279Y590550D02*
G01*
X1944623Y590550D01*
X1986279Y647700D02*
G01*
X1918715Y647700D01*
X1884425Y538734D02*
G01*
X1884425Y647700D01*
X1884425Y538734D02*
G01*
X1847850Y538734D01*
X1832355Y543813D01*
X1821941Y554227D01*
X1816861Y564642D01*
X1811527Y580389D01*
X1811527Y606297D01*
X1816861Y621792D01*
X1821941Y632205D01*
X1832355Y642619D01*
X1847850Y647700D01*
X1884425Y647700D01*
X1772157Y564642D02*
G01*
X1772157Y559561D01*
X1766823Y549147D01*
X1761743Y543813D01*
X1751329Y538734D01*
X1730502Y538734D01*
X1720088Y543813D01*
X1715007Y549147D01*
X1709673Y559561D01*
X1709673Y569976D01*
X1715007Y580389D01*
X1725421Y595884D01*
X1777238Y647700D01*
X1704593Y647700D01*
X2933700Y538734D02*
G01*
X2933700Y647700D01*
X2933700Y647700D02*
G01*
X2871470Y647700D01*
X2837179Y538734D02*
G01*
X2837179Y647700D01*
X2837179Y538734D02*
G01*
X2769615Y538734D01*
X2837179Y590550D02*
G01*
X2795523Y590550D01*
X2837179Y647700D02*
G01*
X2769615Y647700D01*
X2735325Y538734D02*
G01*
X2735325Y647700D01*
X2735325Y538734D02*
G01*
X2698750Y538734D01*
X2683255Y543813D01*
X2672841Y554227D01*
X2667761Y564642D01*
X2662427Y580389D01*
X2662427Y606297D01*
X2667761Y621792D01*
X2672841Y632205D01*
X2683255Y642619D01*
X2698750Y647700D01*
X2735325Y647700D01*
X2617723Y538734D02*
G01*
X2560573Y538734D01*
X2591815Y580389D01*
X2576321Y580389D01*
X2565907Y585469D01*
X2560573Y590550D01*
X2555493Y606297D01*
X2555493Y616711D01*
X2560573Y632205D01*
X2570988Y642619D01*
X2586736Y647700D01*
X2602229Y647700D01*
X2617723Y642619D01*
X2623057Y637539D01*
X2628138Y627126D01*
X4013200Y538734D02*
G01*
X4013200Y647700D01*
X4013200Y647700D02*
G01*
X3950970Y647700D01*
X3916679Y538734D02*
G01*
X3916679Y647700D01*
X3916679Y538734D02*
G01*
X3849115Y538734D01*
X3916679Y590550D02*
G01*
X3875023Y590550D01*
X3916679Y647700D02*
G01*
X3849115Y647700D01*
X3814825Y538734D02*
G01*
X3814825Y647700D01*
X3814825Y538734D02*
G01*
X3778250Y538734D01*
X3762755Y543813D01*
X3752341Y554227D01*
X3747261Y564642D01*
X3741927Y580389D01*
X3741927Y606297D01*
X3747261Y621792D01*
X3752341Y632205D01*
X3762755Y642619D01*
X3778250Y647700D01*
X3814825Y647700D01*
X3655821Y538734D02*
G01*
X3707638Y611377D01*
X3629659Y611377D01*
X3655821Y538734D02*
G01*
X3655821Y647700D01*
X138683Y1790700D02*
G01*
X247650Y1790700D01*
X138683Y1790700D02*
G01*
X138683Y1837435D01*
X143763Y1852929D01*
X149097Y1858263D01*
X159511Y1863343D01*
X169925Y1863343D01*
X180339Y1858263D01*
X185419Y1852929D01*
X190500Y1837435D01*
X190500Y1790700D01*
X190500Y1827021D02*
G01*
X247650Y1863343D01*
X159511Y1897634D02*
G01*
X154177Y1908047D01*
X138683Y1923795D01*
X247650Y1923795D01*
X1243584Y1638300D02*
G01*
X1352550Y1638300D01*
X1243584Y1638300D02*
G01*
X1243584Y1685035D01*
X1248663Y1700529D01*
X1253997Y1705863D01*
X1264411Y1710943D01*
X1274825Y1710943D01*
X1285239Y1705863D01*
X1290320Y1700529D01*
X1295400Y1685035D01*
X1295400Y1638300D01*
X1295400Y1674621D02*
G01*
X1352550Y1710943D01*
X1269491Y1750568D02*
G01*
X1264411Y1750568D01*
X1253997Y1755647D01*
X1248663Y1760981D01*
X1243584Y1771395D01*
X1243584Y1791969D01*
X1248663Y1802384D01*
X1253997Y1807718D01*
X1264411Y1812797D01*
X1274825Y1812797D01*
X1285239Y1807718D01*
X1300734Y1797303D01*
X1352550Y1745234D01*
X1352550Y1818131D01*
X2386584Y1510286D02*
G01*
X2495550Y1510286D01*
X2386584Y1510286D02*
G01*
X2386584Y1557022D01*
X2391663Y1572516D01*
X2396997Y1577850D01*
X2407411Y1582930D01*
X2417825Y1582930D01*
X2428239Y1577850D01*
X2433320Y1572516D01*
X2438400Y1557022D01*
X2438400Y1510286D01*
X2438400Y1546608D02*
G01*
X2495550Y1582930D01*
X2386584Y1627634D02*
G01*
X2386584Y1684784D01*
X2428239Y1653796D01*
X2428239Y1669290D01*
X2433320Y1679704D01*
X2438400Y1684784D01*
X2454147Y1690118D01*
X2464561Y1690118D01*
X2480055Y1684784D01*
X2490470Y1674370D01*
X2495550Y1658876D01*
X2495550Y1643382D01*
X2490470Y1627634D01*
X2485389Y1622554D01*
X2474975Y1617220D01*
X3377184Y1651000D02*
G01*
X3486150Y1651000D01*
X3377184Y1651000D02*
G01*
X3377184Y1697735D01*
X3382263Y1713229D01*
X3387597Y1718563D01*
X3398011Y1723643D01*
X3408425Y1723643D01*
X3418839Y1718563D01*
X3423920Y1713229D01*
X3429000Y1697735D01*
X3429000Y1651000D01*
X3429000Y1687321D02*
G01*
X3486150Y1723643D01*
X3377184Y1810003D02*
G01*
X3449827Y1757934D01*
X3449827Y1835911D01*
X3377184Y1810003D02*
G01*
X3486150Y1810003D01*
X636015Y673100D02*
G01*
X527050Y673100D01*
X636015Y673100D02*
G01*
X636015Y626363D01*
X630935Y610869D01*
X625601Y605535D01*
X615187Y600455D01*
X604773Y600455D01*
X594359Y605535D01*
X589279Y610869D01*
X584200Y626363D01*
X584200Y673100D01*
X584200Y636777D02*
G01*
X527050Y600455D01*
X636015Y503681D02*
G01*
X636015Y555751D01*
X589279Y560831D01*
X594359Y555751D01*
X599693Y540003D01*
X599693Y524510D01*
X594359Y509015D01*
X584200Y498601D01*
X568451Y493268D01*
X558037Y493268D01*
X542543Y498601D01*
X532129Y509015D01*
X527050Y524510D01*
X527050Y540003D01*
X532129Y555751D01*
X537209Y560831D01*
X547623Y566165D01*
X1740915Y673100D02*
G01*
X1631950Y673100D01*
X1740915Y673100D02*
G01*
X1740915Y626363D01*
X1735836Y610869D01*
X1730502Y605535D01*
X1720088Y600455D01*
X1709673Y600455D01*
X1699259Y605535D01*
X1694179Y610869D01*
X1689100Y626363D01*
X1689100Y673100D01*
X1689100Y636777D02*
G01*
X1631950Y600455D01*
X1725421Y503681D02*
G01*
X1735836Y509015D01*
X1740915Y524510D01*
X1740915Y534923D01*
X1735836Y550418D01*
X1720088Y560831D01*
X1694179Y566165D01*
X1668271Y566165D01*
X1647443Y560831D01*
X1637029Y550418D01*
X1631950Y534923D01*
X1631950Y529589D01*
X1637029Y514095D01*
X1647443Y503681D01*
X1662938Y498601D01*
X1668271Y498601D01*
X1683765Y503681D01*
X1694179Y514095D01*
X1699259Y529589D01*
X1699259Y534923D01*
X1694179Y550418D01*
X1683765Y560831D01*
X1668271Y566165D01*
X3645915Y673100D02*
G01*
X3536950Y673100D01*
X3645915Y673100D02*
G01*
X3645915Y626363D01*
X3640836Y610869D01*
X3635502Y605535D01*
X3625088Y600455D01*
X3614673Y600455D01*
X3604259Y605535D01*
X3599179Y610869D01*
X3594100Y626363D01*
X3594100Y673100D01*
X3594100Y636777D02*
G01*
X3536950Y600455D01*
X3645915Y493268D02*
G01*
X3536950Y545337D01*
X3645915Y566165D02*
G01*
X3645915Y493268D01*
X4636515Y673100D02*
G01*
X4527550Y673100D01*
X4636515Y673100D02*
G01*
X4636515Y626363D01*
X4631436Y610869D01*
X4626102Y605535D01*
X4615688Y600455D01*
X4605273Y600455D01*
X4594859Y605535D01*
X4589779Y610869D01*
X4584700Y626363D01*
X4584700Y673100D01*
X4584700Y636777D02*
G01*
X4527550Y600455D01*
X4636515Y540003D02*
G01*
X4631436Y555751D01*
X4621021Y560831D01*
X4610607Y560831D01*
X4600193Y555751D01*
X4594859Y545337D01*
X4589779Y524510D01*
X4584700Y509015D01*
X4574286Y498601D01*
X4563871Y493268D01*
X4548123Y493268D01*
X4537709Y498601D01*
X4532629Y503681D01*
X4527550Y519429D01*
X4527550Y540003D01*
X4532629Y555751D01*
X4537709Y560831D01*
X4548123Y566165D01*
X4563871Y566165D01*
X4574286Y560831D01*
X4584700Y550418D01*
X4589779Y534923D01*
X4594859Y514095D01*
X4600193Y503681D01*
X4610607Y498601D01*
X4621021Y498601D01*
X4631436Y503681D01*
X4636515Y519429D01*
X4636515Y540003D01*
X898143Y2677921D02*
G01*
X887729Y2688335D01*
X872235Y2693415D01*
X851407Y2693415D01*
X835913Y2688335D01*
X825500Y2677921D01*
X825500Y2667507D01*
X830579Y2657093D01*
X835913Y2651760D01*
X846327Y2646679D01*
X877569Y2636265D01*
X887729Y2631185D01*
X893063Y2625851D01*
X898143Y2615437D01*
X898143Y2599943D01*
X887729Y2589529D01*
X872235Y2584450D01*
X851407Y2584450D01*
X835913Y2589529D01*
X825500Y2599943D01*
X932433Y2672587D02*
G01*
X942847Y2677921D01*
X958595Y2693415D01*
X958595Y2584450D01*
X2015743Y2677921D02*
G01*
X2005329Y2688335D01*
X1989836Y2693415D01*
X1969007Y2693415D01*
X1953513Y2688335D01*
X1943100Y2677921D01*
X1943100Y2667507D01*
X1948179Y2657093D01*
X1953513Y2651760D01*
X1963927Y2646679D01*
X1995170Y2636265D01*
X2005329Y2631185D01*
X2010663Y2625851D01*
X2015743Y2615437D01*
X2015743Y2599943D01*
X2005329Y2589529D01*
X1989836Y2584450D01*
X1969007Y2584450D01*
X1953513Y2589529D01*
X1943100Y2599943D01*
X2055368Y2667507D02*
G01*
X2055368Y2672587D01*
X2060447Y2683001D01*
X2065781Y2688335D01*
X2076195Y2693415D01*
X2096770Y2693415D01*
X2107184Y2688335D01*
X2112518Y2683001D01*
X2117597Y2672587D01*
X2117597Y2662173D01*
X2112518Y2651760D01*
X2102104Y2636265D01*
X2050034Y2584450D01*
X2122931Y2584450D01*
X3171443Y2677921D02*
G01*
X3161029Y2688335D01*
X3145536Y2693415D01*
X3124707Y2693415D01*
X3109213Y2688335D01*
X3098800Y2677921D01*
X3098800Y2667507D01*
X3103879Y2657093D01*
X3109213Y2651760D01*
X3119627Y2646679D01*
X3150870Y2636265D01*
X3161029Y2631185D01*
X3166363Y2625851D01*
X3171443Y2615437D01*
X3171443Y2599943D01*
X3161029Y2589529D01*
X3145536Y2584450D01*
X3124707Y2584450D01*
X3109213Y2589529D01*
X3098800Y2599943D01*
X3216147Y2693415D02*
G01*
X3273297Y2693415D01*
X3242309Y2651760D01*
X3257804Y2651760D01*
X3268218Y2646679D01*
X3273297Y2641600D01*
X3278631Y2625851D01*
X3278631Y2615437D01*
X3273297Y2599943D01*
X3262884Y2589529D01*
X3247389Y2584450D01*
X3231895Y2584450D01*
X3216147Y2589529D01*
X3211068Y2594610D01*
X3205734Y2605023D01*
X4136643Y2677921D02*
G01*
X4126229Y2688335D01*
X4110736Y2693415D01*
X4089907Y2693415D01*
X4074413Y2688335D01*
X4064000Y2677921D01*
X4064000Y2667507D01*
X4069079Y2657093D01*
X4074413Y2651760D01*
X4084827Y2646679D01*
X4116070Y2636265D01*
X4126229Y2631185D01*
X4131563Y2625851D01*
X4136643Y2615437D01*
X4136643Y2599943D01*
X4126229Y2589529D01*
X4110736Y2584450D01*
X4089907Y2584450D01*
X4074413Y2589529D01*
X4064000Y2599943D01*
X4223004Y2693415D02*
G01*
X4170934Y2620771D01*
X4248911Y2620771D01*
X4223004Y2693415D02*
G01*
X4223004Y2584450D01*
G36*
X705358Y1803400D02*
G01*
X695807Y1793646D01*
X686816Y1783384D01*
X678434Y1772564D01*
X670712Y1761286D01*
X663702Y1749552D01*
X657402Y1737410D01*
X651865Y1724914D01*
X647039Y1712163D01*
X643026Y1699056D01*
X639775Y1685798D01*
X637336Y1672336D01*
X635711Y1658772D01*
X634898Y1645157D01*
X634898Y1631492D01*
X635711Y1617827D01*
X637336Y1604264D01*
X639775Y1590802D01*
X643026Y1577543D01*
X647039Y1564487D01*
X651865Y1551686D01*
X657402Y1539189D01*
X663702Y1527048D01*
X670712Y1515313D01*
X678434Y1504035D01*
X686816Y1493215D01*
X695807Y1482953D01*
X705358Y1473200D01*
G37*
G36*
X1725574Y1803400D02*
G01*
X1716024Y1793646D01*
X1707032Y1783384D01*
X1698650Y1772564D01*
X1690928Y1761286D01*
X1683918Y1749552D01*
X1677619Y1737410D01*
X1672082Y1724914D01*
X1667256Y1712163D01*
X1663242Y1699056D01*
X1659991Y1685798D01*
X1657553Y1672336D01*
X1655927Y1658772D01*
X1655114Y1645157D01*
X1655114Y1631492D01*
X1655927Y1617827D01*
X1657553Y1604264D01*
X1659991Y1590802D01*
X1663242Y1577543D01*
X1667256Y1564487D01*
X1672082Y1551686D01*
X1677619Y1539189D01*
X1683918Y1527048D01*
X1690928Y1515313D01*
X1698650Y1504035D01*
X1707032Y1493215D01*
X1716024Y1482953D01*
X1725574Y1473200D01*
G37*
G36*
X2860141Y1803400D02*
G01*
X2850540Y1793646D01*
X2841548Y1783384D01*
X2833166Y1772564D01*
X2825496Y1761286D01*
X2818485Y1749552D01*
X2812186Y1737410D01*
X2806598Y1724914D01*
X2801823Y1712163D01*
X2797759Y1699056D01*
X2796032Y1692452D01*
X2793238Y1679092D01*
X2791155Y1665579D01*
X2789936Y1651965D01*
X2789529Y1638300D01*
X2789936Y1624634D01*
X2791155Y1611020D01*
X2793238Y1597507D01*
X2796032Y1584147D01*
X2799689Y1570990D01*
X2804109Y1558036D01*
X2809290Y1545386D01*
X2815234Y1533093D01*
X2821889Y1521155D01*
X2829255Y1509623D01*
X2837281Y1498549D01*
X2845968Y1488033D01*
X2855264Y1477975D01*
X2860141Y1473200D01*
G37*
G36*
X3893058Y1803400D02*
G01*
X3883507Y1793646D01*
X3874515Y1783384D01*
X3866134Y1772564D01*
X3858412Y1761286D01*
X3851401Y1749552D01*
X3845102Y1737410D01*
X3839565Y1724914D01*
X3834739Y1712163D01*
X3830726Y1699056D01*
X3827475Y1685798D01*
X3825036Y1672336D01*
X3823411Y1658772D01*
X3822598Y1645157D01*
X3822598Y1631492D01*
X3823411Y1617827D01*
X3825036Y1604264D01*
X3827475Y1590802D01*
X3830726Y1577543D01*
X3834739Y1564487D01*
X3839565Y1551686D01*
X3845102Y1539189D01*
X3851401Y1527048D01*
X3858412Y1515313D01*
X3866134Y1504035D01*
X3874515Y1493215D01*
X3883507Y1482953D01*
X3893058Y1473200D01*
G37*
D11*
X950211Y1443682D02*
G01*
X950211Y1523682D01*
X990211Y1483682D02*
G01*
X910211Y1483682D01*
X1970427Y1443682D02*
G01*
X1970427Y1523682D01*
X2010427Y1483682D02*
G01*
X1930427Y1483682D01*
X3104969Y1443682D02*
G01*
X3104969Y1523682D01*
X3144969Y1483682D02*
G01*
X3064969Y1483682D01*
X4137911Y1443682D02*
G01*
X4137911Y1523682D01*
X4177911Y1483682D02*
G01*
X4097911Y1483682D01*
D12*
X1852701Y2945307D02*
G01*
X1662201Y2945307D01*
X1662201Y2691307D01*
X3186201Y2691307D01*
X3186201Y2945307D01*
D13*
X3186201Y2945307D02*
G01*
X1852701Y2945307D01*
D12*
X3009900Y381000D02*
G01*
X3009900Y127000D01*
X1993900Y127000D01*
X1993900Y381000D01*
X2184400Y381000D01*
D13*
X3009900Y381000D02*
G01*
X2184400Y381000D01*
D11*
X977900Y1025397D02*
G01*
X723112Y1025931D01*
X2184400Y1025397D02*
G01*
X1929612Y1025931D01*
X3035300Y1025397D02*
G01*
X2780512Y1025931D01*
X4114800Y1025397D02*
G01*
X3860012Y1025931D01*
X381000Y1536700D02*
G01*
X381000Y1511300D01*
X381000Y2044700D02*
G01*
X381000Y2070100D01*
X381000Y1536700D02*
G01*
X304800Y1536700D01*
X457200Y1536700D02*
G01*
X381000Y1536700D01*
X457200Y2044700D02*
G01*
X457200Y1536700D01*
X381000Y2044700D02*
G01*
X457200Y2044700D01*
X304800Y2044700D02*
G01*
X381000Y2044700D01*
X304800Y1536700D02*
G01*
X304800Y2044700D01*
X1485900Y1384300D02*
G01*
X1485900Y1358900D01*
X1485900Y1892300D02*
G01*
X1485900Y1917700D01*
X1485900Y1384300D02*
G01*
X1409700Y1384300D01*
X1562100Y1384300D02*
G01*
X1485900Y1384300D01*
X1562100Y1892300D02*
G01*
X1562100Y1384300D01*
X1485900Y1892300D02*
G01*
X1562100Y1892300D01*
X1409700Y1892300D02*
G01*
X1485900Y1892300D01*
X1409700Y1384300D02*
G01*
X1409700Y1892300D01*
X2628900Y1384300D02*
G01*
X2628900Y1358900D01*
X2628900Y1892300D02*
G01*
X2628900Y1917700D01*
X2628900Y1384300D02*
G01*
X2552700Y1384300D01*
X2705100Y1384300D02*
G01*
X2628900Y1384300D01*
X2705100Y1892300D02*
G01*
X2705100Y1384300D01*
X2628900Y1892300D02*
G01*
X2705100Y1892300D01*
X2552700Y1892300D02*
G01*
X2628900Y1892300D01*
X2552700Y1384300D02*
G01*
X2552700Y1892300D01*
X3619500Y1397000D02*
G01*
X3619500Y1371600D01*
X3619500Y1905000D02*
G01*
X3619500Y1930400D01*
X3619500Y1397000D02*
G01*
X3543300Y1397000D01*
X3695700Y1397000D02*
G01*
X3619500Y1397000D01*
X3695700Y1905000D02*
G01*
X3695700Y1397000D01*
X3619500Y1905000D02*
G01*
X3695700Y1905000D01*
X3543300Y1905000D02*
G01*
X3619500Y1905000D01*
X3543300Y1397000D02*
G01*
X3543300Y1905000D01*
X393700Y927100D02*
G01*
X393700Y952500D01*
X393700Y419100D02*
G01*
X393700Y393700D01*
X393700Y927100D02*
G01*
X469900Y927100D01*
X317500Y927100D02*
G01*
X393700Y927100D01*
X317500Y419100D02*
G01*
X317500Y927100D01*
X393700Y419100D02*
G01*
X317500Y419100D01*
X469900Y419100D02*
G01*
X393700Y419100D01*
X469900Y927100D02*
G01*
X469900Y419100D01*
X1498600Y927100D02*
G01*
X1498600Y952500D01*
X1498600Y419100D02*
G01*
X1498600Y393700D01*
X1498600Y927100D02*
G01*
X1574800Y927100D01*
X1422400Y927100D02*
G01*
X1498600Y927100D01*
X1422400Y419100D02*
G01*
X1422400Y927100D01*
X1498600Y419100D02*
G01*
X1422400Y419100D01*
X1574800Y419100D02*
G01*
X1498600Y419100D01*
X1574800Y927100D02*
G01*
X1574800Y419100D01*
X3403600Y927100D02*
G01*
X3403600Y952500D01*
X3403600Y419100D02*
G01*
X3403600Y393700D01*
X3403600Y927100D02*
G01*
X3479800Y927100D01*
X3327400Y927100D02*
G01*
X3403600Y927100D01*
X3327400Y419100D02*
G01*
X3327400Y927100D01*
X3403600Y419100D02*
G01*
X3327400Y419100D01*
X3479800Y419100D02*
G01*
X3403600Y419100D01*
X3479800Y927100D02*
G01*
X3479800Y419100D01*
X4394200Y927100D02*
G01*
X4394200Y952500D01*
X4394200Y419100D02*
G01*
X4394200Y393700D01*
X4394200Y927100D02*
G01*
X4470400Y927100D01*
X4318000Y927100D02*
G01*
X4394200Y927100D01*
X4318000Y419100D02*
G01*
X4318000Y927100D01*
X4394200Y419100D02*
G01*
X4318000Y419100D01*
X4470400Y419100D02*
G01*
X4394200Y419100D01*
X4470400Y927100D02*
G01*
X4470400Y419100D01*
X550900Y2547899D02*
G01*
X1150899Y2547899D01*
X1150899Y1947900D01*
X550900Y1947900D01*
X550900Y2547899D01*
X1668500Y2547899D02*
G01*
X2268499Y2547899D01*
X2268499Y1947900D01*
X1668500Y1947900D01*
X1668500Y2547899D01*
X2824200Y2547899D02*
G01*
X3424199Y2547899D01*
X3424199Y1947900D01*
X2824200Y1947900D01*
X2824200Y2547899D01*
X3789400Y2547899D02*
G01*
X4389399Y2547899D01*
X4389399Y1947900D01*
X3789400Y1947900D01*
X3789400Y2547899D01*
G75*
G01*
X724357Y1025398D02*
G03*
X977849Y1025398I126746J-154710D01*
G75*
G01*
X1930857Y1025398D02*
G03*
X2184349Y1025398I126746J-154710D01*
G75*
G01*
X2781757Y1025398D02*
G03*
X3035249Y1025398I126746J-154710D01*
G75*
G01*
X3861257Y1025398D02*
G03*
X4114749Y1025398I126746J-154710D01*
G75*
G01*
X1003833Y2247900D02*
G03*
X1003833Y2247527I-152933J-187D01*
G75*
G01*
X2121433Y2247900D02*
G03*
X2121433Y2247527I-152933J-187D01*
G75*
G01*
X3277133Y2247900D02*
G03*
X3277133Y2247527I-152933J-187D01*
G75*
G01*
X4242333Y2247900D02*
G03*
X4242333Y2247527I-152933J-187D01*
D14*
G75*
G01
X1134796Y1638300D02*
G03X1134796Y1638300I-250012J0D01*
G75*
G01
X2155012Y1638300D02*
G03X2155012Y1638300I-250012J0D01*
G75*
G01
X3289554Y1638300D02*
G03X3289554Y1638300I-250012J0D01*
G75*
G01
X4322496Y1638300D02*
G03X4322496Y1638300I-250012J0D01*
M02*
